<svg width="576" height="449" viewBox="0 0 576 449" fill="none" xmlns="http://www.w3.org/2000/svg">
<path d="M268.9 53.2L152.3 182.8C147.7 187.9 147.9 195.8 152.8 200.7C183.3 231.2 232.8 231.2 263.3 200.7L295.1 168.9C299.3 164.7 304.6 162.4 310 162C316.8 161.4 323.8 163.7 329 168.9L505.6 344L576 288V0L464 64L440.2 48.1C424.4 37.6 405.9 32 386.9 32H316.5C315.4 32 314.2 32 313.1 32.1C296.2 33 280.3 40.6 268.9 53.2ZM116.6 150.7L223.4 32H183.8C158.3 32 133.9 42.1 115.9 60.1L112 64L0 0V288L156.4 418.3C179.4 437.5 208.4 448 238.3 448H254L247 441C237.6 431.6 237.6 416.4 247 407.1C256.4 397.8 271.6 397.7 280.9 407.1L321.9 448.1H330.9C350 448.1 368.7 443.8 385.7 435.8L359 409C349.6 399.6 349.6 384.4 359 375.1C368.4 365.8 383.6 365.7 392.9 375.1L424.9 407.1L442.4 389.6C451.3 380.7 453.9 367.8 450 356.5L312.1 219.7L297.2 234.6C247.9 283.9 168.1 283.9 118.8 234.6C95.8 211.6 94.9 174.7 116.6 150.6V150.7Z" fill="#98A26F"/>
</svg>
