<svg width="576" height="513" viewBox="0 0 576 513" fill="none" xmlns="http://www.w3.org/2000/svg">
<path d="M321.8 55.1L298.2 7.29997C294.3 -1.00003 282.1 -1.30003 277.8 7.29997L254.2 55.1L201.9 62.6C192.6 64 188.6 75.5 195.5 82.4L233.5 119.4L224.5 171.5C223.1 180.8 232.7 188 241.3 183.7L288.2 158.9L334.8 183.3C343.4 187.6 353.1 180.4 351.6 171.1L342.6 119L380.6 82.4C387.4 75.6 383.5 64.1 374.2 62.6L321.9 55.1H321.8ZM256 257C229.5 257 208 278.5 208 305V465C208 491.5 229.5 513 256 513H320C346.5 513 368 491.5 368 465V305C368 278.5 346.5 257 320 257H256ZM48 321C21.5 321 0 342.5 0 369V465C0 491.5 21.5 513 48 513H112C138.5 513 160 491.5 160 465V369C160 342.5 138.5 321 112 321H48ZM416 433V465C416 491.5 437.5 513 464 513H528C554.5 513 576 491.5 576 465V433C576 406.5 554.5 385 528 385H464C437.5 385 416 406.5 416 433Z" fill="#A6A6FC"/>
</svg>
