<svg width="480" height="496" viewBox="0 0 480 496" fill="none" xmlns="http://www.w3.org/2000/svg">
<path d="M461.2 2.89999C472.7 7.99999 480 19.4 480 32V448C480 460.6 472.7 472 461.2 477.1C449.7 482.2 436.4 480.3 426.9 472L380.3 431.3C336.7 393.2 281.6 371 223.9 368.3V464C223.9 481.7 209.6 496 191.9 496H159.9C142.2 496 127.9 481.7 127.9 464V368C57.3 368 0 310.7 0 240C0 169.3 57.3 112 128 112H212.5C274.3 111.8 333.9 89.3 380.4 48.7L427 7.99999C436.4 -0.300013 449.9 -2.20001 461.3 2.89999H461.2ZM224 304V304.2C294.3 306.9 361.8 332.7 416 377.6V102.3C361.8 147.2 294.3 173 224 175.7V304Z" fill="#976795"/>
</svg>
