<svg width="509" height="509" viewBox="0 0 509 509" fill="none" xmlns="http://www.w3.org/2000/svg">
<path d="M366.5 17.3L316.4 67.4L441.7 192.7L491.8 142.6C513.7 120.7 513.7 85.3 491.8 63.4L445.7 17.3C423.8 -4.6 388.4 -4.6 366.5 17.3ZM277.3 96.2L276.8 96.3L132.7 139.5C112.8 145.5 97 160.7 90.4 180.5L1.79998 444.8C-1.10002 453.5 -0.100025 463 4.29998 470.8L159.7 315.4C158.6 311.4 158.1 307.3 158.1 303C158.1 276.5 179.6 255 206.1 255C232.6 255 254.1 276.5 254.1 303C254.1 329.5 232.6 351 206.1 351C201.8 351 197.6 350.4 193.7 349.4L38.3 504.7C46.1 509.1 55.5 510.1 64.3 507.2L328.6 418.6C348.3 412 363.6 396.2 369.6 376.3L412.8 232.2L412.9 231.7L277.4 96.2H277.3Z" fill="#976795"/>
</svg>
