<svg width="512" height="512" viewBox="0 0 512 512" fill="none" xmlns="http://www.w3.org/2000/svg">
<path d="M64 64C64 28.7 92.7 0 128 0H341.5C358.5 0 374.8 6.7 386.8 18.7L429.3 61.2C441.3 73.2 448 89.5 448 106.5V144H64V64ZM0 256C0 220.7 28.7 192 64 192H448C483.3 192 512 220.7 512 256V352C512 369.7 497.7 384 480 384H448V448C448 483.3 419.3 512 384 512H128C92.7 512 64 483.3 64 448V384H32C14.3 384 0 369.7 0 352V256ZM128 416V448H384V352H128V416ZM456 272C456 258.7 445.3 248 432 248C418.7 248 408 258.7 408 272C408 285.3 418.7 296 432 296C445.3 296 456 285.3 456 272Z" fill="#EAD288"/>
</svg>
