<svg width="1882" height="395" viewBox="0 0 1882 395" fill="none" xmlns="http://www.w3.org/2000/svg">
<g clip-path="url(#clip0_2441_237)">
<path d="M214 259.6C214 250.8 214.4 242.8 215.2 235.6L214.4 234.4C206.933 235.467 198.8 236.267 190 236.8C181.2 237.067 173.067 237.067 165.6 236.8V184.8L270 184.4V320.4C257.733 326 243.733 330.4 228 333.6C212.533 336.533 192.8 338 168.8 338C136.8 338 111.733 333.733 93.6 325.2C75.4667 316.4 62.6667 302.4 55.2 283.2C47.7333 263.733 44 237.867 44 205.6C44 179.467 46.9333 158 52.8 141.2C58.9333 124.4 67.7333 111.467 79.2 102.4C90.9333 93.0667 105.2 86.6667 122 83.2C138.8 79.4667 158 77.6 179.6 77.6C192.4 77.6 205.2 78.1333 218 79.2C231.067 80.2667 244 82.2667 256.8 85.2V138L255.6 138.8C244.4 136.133 233.2 134.267 222 133.2C211.067 132.133 200 131.6 188.8 131.6C172.533 131.6 158.267 133.333 146 136.8C134 140 124.667 146.8 118 157.2C111.333 167.6 108 183.733 108 205.6C108 227.2 109.733 243.733 113.2 255.2C116.933 266.4 123.733 274.133 133.6 278.4C143.733 282.4 158.133 284.4 176.8 284.4C179.2 284.4 182.933 284.4 188 284.4C193.067 284.133 198.133 283.867 203.2 283.6C208.267 283.333 211.867 282.933 214 282.4V259.6ZM414.109 334.4H350.109V81.2H470.909C502.643 81.2 525.709 88.4 540.109 102.8C554.776 116.933 562.109 137.867 562.109 165.6C562.109 186.4 556.909 204.267 546.509 219.2C536.109 233.867 522.376 243.067 505.309 246.8L504.909 248C511.576 252.267 518.909 259.333 526.909 269.2C534.909 279.067 542.776 289.867 550.509 301.6C558.509 313.067 565.576 323.867 571.709 334V334.4H497.309L454.109 270.4C450.376 264.8 447.309 260.8 444.909 258.4C442.776 256 440.109 254.533 436.909 254C433.976 253.467 429.176 253.2 422.509 253.2H414.109V334.4ZM460.509 133.2H414.109V201.2H460.509C473.843 201.2 483.043 198.533 488.109 193.2C493.443 187.867 496.109 179.2 496.109 167.2C496.109 155.2 493.443 146.533 488.109 141.2C483.043 135.867 473.843 133.2 460.509 133.2ZM635.922 207.6C635.922 175.333 639.522 149.733 646.722 130.8C654.189 111.867 666.855 98.2667 684.722 90C702.855 81.7333 728.055 77.6 760.322 77.6C784.589 77.6 804.722 79.8667 820.722 84.4C836.722 88.9333 849.389 96.2666 858.722 106.4C868.055 116.533 874.589 130 878.322 146.8C882.322 163.333 884.322 183.6 884.322 207.6C884.322 231.867 882.322 252.4 878.322 269.2C874.589 285.733 868.055 299.067 858.722 309.2C849.389 319.333 836.722 326.667 820.722 331.2C804.722 335.733 784.589 338 760.322 338C736.055 338 715.922 335.733 699.922 331.2C683.922 326.667 671.255 319.333 661.922 309.2C652.589 299.067 645.922 285.733 641.922 269.2C637.922 252.4 635.922 231.867 635.922 207.6ZM760.322 282C777.389 282 790.189 279.867 798.722 275.6C807.255 271.333 812.989 263.867 815.922 253.2C818.855 242.267 820.322 227.067 820.322 207.6C820.322 188.4 818.855 173.467 815.922 162.8C812.989 152.133 807.255 144.667 798.722 140.4C790.189 135.867 777.389 133.6 760.322 133.6C743.522 133.6 730.722 135.867 721.922 140.4C713.389 144.667 707.522 152.133 704.322 162.8C701.389 173.467 699.922 188.4 699.922 207.6C699.922 227.067 701.389 242.267 704.322 253.2C707.522 263.867 713.389 271.333 721.922 275.6C730.722 279.867 743.522 282 760.322 282ZM1219.99 81.2H1285.19L1231.59 334.4H1153.59C1145.32 305.867 1138.12 278 1131.99 250.8C1126.12 223.6 1120.52 194.533 1115.19 163.6H1114.39C1108.26 194.533 1102.12 223.6 1095.99 250.8C1090.12 278 1083.46 305.867 1075.99 334.4H997.991L944.391 81.2H1009.59C1013.59 99.8667 1017.19 118.133 1020.39 136C1023.59 153.867 1026.66 172.133 1029.59 190.8C1032.79 209.2 1035.99 229.2 1039.19 250.8H1039.99C1043.99 229.2 1047.86 209.2 1051.59 190.8C1055.32 172.133 1059.19 153.867 1063.19 136C1067.19 118.133 1071.46 99.8667 1075.99 81.2H1153.59C1159.72 109.467 1165.72 137.733 1171.59 166C1177.72 194.267 1183.72 222.533 1189.59 250.8H1190.39C1195.46 222.533 1200.39 194.267 1205.19 166C1209.99 137.733 1214.92 109.467 1219.99 81.2ZM1405.03 334.4V135.2H1333.03V81.2H1541.03V135.2H1469.03V334.4H1405.03ZM1669.05 334.4H1605.05V81.2H1669.05V178H1765.05V81.2H1829.05V334.4H1765.05V230H1669.05V334.4Z" fill="url(#paint0_linear_2441_237)"/>
</g>
<defs>
<linearGradient id="paint0_linear_2441_237" x1="941.055" y1="55" x2="941.055" y2="338" gradientUnits="userSpaceOnUse">
<stop stop-color="#6D6D6D"/>
<stop offset="1" stop-color="#D3D3D3" stop-opacity="0"/>
</linearGradient>
<clipPath id="clip0_2441_237">
<rect width="1882" height="395" fill="white"/>
</clipPath>
</defs>
</svg>
