<svg width="228" height="227" viewBox="0 0 228 227" fill="none" xmlns="http://www.w3.org/2000/svg">
<path d="M103.353 216.229L105.072 216.393C105.127 216.898 105.263 217.349 105.482 217.748C105.695 218.146 105.97 218.489 106.307 218.778C106.638 219.071 107.015 219.303 107.437 219.474C107.859 219.645 108.306 219.753 108.777 219.798C109.637 219.88 110.436 219.737 111.176 219.369C111.911 219.001 112.524 218.413 113.016 217.607C113.504 216.8 113.806 215.781 113.924 214.552C114.041 213.322 113.937 212.265 113.611 211.381C113.28 210.495 112.789 209.802 112.137 209.302C111.481 208.801 110.723 208.509 109.863 208.427C109.391 208.382 108.932 208.403 108.485 208.491C108.039 208.579 107.625 208.733 107.245 208.954C106.86 209.178 106.524 209.465 106.239 209.816C105.949 210.171 105.729 210.588 105.581 211.069L103.861 210.904C104.06 210.191 104.358 209.564 104.754 209.024C105.151 208.483 105.623 208.036 106.17 207.682C106.716 207.333 107.316 207.085 107.969 206.938C108.618 206.79 109.3 206.75 110.017 206.818C111.228 206.934 112.276 207.333 113.163 208.014C114.049 208.696 114.711 209.608 115.147 210.751C115.584 211.893 115.731 213.213 115.588 214.711C115.445 216.208 115.051 217.477 114.406 218.516C113.761 219.555 112.939 220.326 111.939 220.827C110.94 221.329 109.835 221.522 108.624 221.406C107.907 221.338 107.244 221.17 106.636 220.902C106.022 220.633 105.481 220.274 105.011 219.823C104.54 219.377 104.161 218.851 103.874 218.245C103.586 217.644 103.412 216.972 103.353 216.229Z" fill="white"/>
<path d="M88.6653 203.367C89.592 203.639 90.3403 204.098 90.9103 204.744C91.4758 205.39 91.8381 206.166 91.9973 207.074C92.1521 207.981 92.0738 208.965 91.7625 210.025C91.4485 211.094 90.9806 211.971 90.3589 212.655C89.7327 213.337 89.0073 213.797 88.1828 214.034C87.3538 214.269 86.476 214.251 85.5493 213.979C84.6226 213.707 83.8765 213.248 83.311 212.603C82.741 211.957 82.3793 211.178 82.2259 210.267C82.068 209.354 82.146 208.363 82.46 207.294C82.7713 206.233 83.2395 205.364 83.8644 204.686C84.4848 204.007 85.2095 203.55 86.0385 203.314C86.863 203.077 87.7386 203.095 88.6653 203.367ZM88.2493 204.783C87.5454 204.577 86.9132 204.587 86.3529 204.815C85.7925 205.042 85.3168 205.418 84.9258 205.942C84.5348 206.466 84.2386 207.071 84.0371 207.757C83.8357 208.443 83.7571 209.114 83.8014 209.771C83.8457 210.428 84.0415 211.005 84.3886 211.504C84.7358 212.003 85.2613 212.356 85.9653 212.562C86.6692 212.769 87.302 212.756 87.8637 212.524C88.4254 212.293 88.9024 211.912 89.2947 211.384C89.687 210.855 89.9839 210.248 90.1853 209.562C90.3868 208.876 90.4647 208.207 90.4191 207.555C90.3734 206.902 90.1764 206.329 89.8279 205.835C89.4794 205.341 88.9533 204.99 88.2493 204.783Z" fill="white"/>
<path d="M69.9058 203.741L72.8548 198.021L74.3158 198.774L69.4136 208.283L68.0022 207.555L68.7681 206.07L68.6443 206.006C68.1725 206.374 67.6341 206.587 67.029 206.646C66.4219 206.709 65.7592 206.556 65.0411 206.186C64.3973 205.854 63.902 205.431 63.5553 204.918C63.2065 204.409 63.0352 203.819 63.0414 203.149C63.0454 202.482 63.256 201.744 63.673 200.935L66.7879 194.893L68.2489 195.646L65.1851 201.589C64.8 202.336 64.6939 203.018 64.867 203.635C65.0379 204.256 65.4618 204.741 66.1387 205.09C66.605 205.331 67.074 205.444 67.5456 205.431C68.013 205.416 68.452 205.269 68.8625 204.99C69.2729 204.71 69.6207 204.294 69.9058 203.741Z" fill="white"/>
<path d="M47.3034 194.237L48.1645 193.142L52.5224 196.569L51.6613 197.664L47.3034 194.237ZM48.8068 198.68L47.5147 197.664L53.8179 189.649C54.1049 189.284 54.2673 188.968 54.3049 188.702C54.3361 188.438 54.2921 188.208 54.173 188.014C54.0474 187.821 53.8897 187.649 53.6999 187.5C53.5575 187.388 53.435 187.304 53.3323 187.246C53.2267 187.193 53.1422 187.15 53.0788 187.118L53.7288 185.751C53.8422 185.787 53.9903 185.85 54.1731 185.941C54.3588 186.028 54.572 186.166 54.8129 186.355C55.1779 186.642 55.4739 187.002 55.7009 187.434C55.9242 187.864 56.0245 188.33 56.0019 188.832C55.9756 189.331 55.7701 189.825 55.3855 190.314L48.8068 198.68Z" fill="white"/>
<path d="M43.2992 175.108C43.7431 175.62 44.0495 176.168 44.2184 176.753C44.3837 177.341 44.3886 177.918 44.233 178.483C44.0738 179.05 43.7311 179.562 43.2047 180.019C42.7415 180.42 42.287 180.654 41.8411 180.721C41.3917 180.791 40.9523 180.745 40.5228 180.582C40.0933 180.42 39.6786 180.189 39.2786 179.891C38.8721 179.592 38.4816 179.276 38.1071 178.943C37.6182 178.506 37.2257 178.149 36.9296 177.871C36.6269 177.593 36.3744 177.418 36.1721 177.348C35.9667 177.274 35.764 177.324 35.564 177.497L35.5219 177.534C35.0025 177.984 34.7221 178.475 34.6807 179.009C34.6362 179.539 34.8617 180.09 35.3574 180.662C35.8713 181.255 36.404 181.608 36.9556 181.719C37.5072 181.831 37.9896 181.828 38.403 181.709L39.0036 183.253C38.3299 183.469 37.7041 183.519 37.1263 183.406C36.542 183.291 36.0145 183.073 35.5439 182.749C35.0667 182.425 34.6517 182.06 34.299 181.653C34.074 181.393 33.8471 181.068 33.6184 180.676C33.3831 180.284 33.2234 179.848 33.1392 179.368C33.052 178.884 33.1084 178.372 33.3085 177.83C33.5085 177.288 33.9296 176.738 34.5718 176.182L39.8987 171.566L40.9751 172.808L39.8803 173.757L39.935 173.82C40.1834 173.752 40.4928 173.73 40.8631 173.753C41.2334 173.776 41.6301 173.89 42.0533 174.095C42.4764 174.3 42.8917 174.637 43.2992 175.108ZM42.0191 175.885C41.5934 175.394 41.1381 175.063 40.6532 174.894C40.1652 174.72 39.6941 174.68 39.2398 174.773C38.7825 174.862 38.3854 175.052 38.0485 175.344L36.9115 176.329C37.0203 176.327 37.1785 176.393 37.3863 176.526C37.5874 176.659 37.8076 176.825 38.0469 177.023C38.2797 177.221 38.5043 177.416 38.7209 177.609C38.931 177.802 39.1025 177.958 39.2356 178.076C39.5575 178.362 39.8874 178.605 40.2254 178.803C40.5569 179.001 40.8901 179.106 41.2251 179.117C41.5535 179.127 41.8756 178.995 42.1915 178.722C42.6231 178.348 42.8111 177.905 42.7555 177.394C42.6933 176.883 42.4478 176.38 42.0191 175.885Z" fill="white"/>
<path d="M32.4375 157.134C32.939 158.003 33.1657 158.869 33.1177 159.733C33.0698 160.598 32.7834 161.406 32.2586 162.16C31.7338 162.913 31.009 163.557 30.0841 164.091C29.1431 164.634 28.2129 164.94 27.2935 165.01C26.3677 165.078 25.5218 164.918 24.7558 164.529C23.9834 164.139 23.3558 163.525 22.8729 162.689C22.4968 162.037 22.2785 161.38 22.2179 160.718C22.1574 160.056 22.2479 159.433 22.4895 158.849C22.7311 158.264 23.1182 157.764 23.6508 157.35L24.4727 158.773C24.1132 159.126 23.8785 159.583 23.7687 160.145C23.6525 160.705 23.7756 161.299 24.1377 161.926C24.4581 162.481 24.8838 162.884 25.4148 163.135C25.9394 163.385 26.5304 163.475 27.1879 163.406C27.8389 163.336 28.5143 163.099 29.214 162.695C29.9298 162.282 30.488 161.809 30.8888 161.278C31.2873 160.742 31.5137 160.182 31.5682 159.599C31.6203 159.011 31.4838 158.436 31.1588 157.873C30.9452 157.503 30.687 157.204 30.3842 156.977C30.0814 156.749 29.749 156.601 29.387 156.531C29.025 156.461 28.6495 156.48 28.2607 156.586L27.4388 155.163C28.0321 154.927 28.6397 154.842 29.2614 154.907C29.8768 154.97 30.4629 155.186 31.0197 155.556C31.5702 155.925 32.0428 156.451 32.4375 157.134Z" fill="white"/>
<path d="M12.6247 143.78L13.9411 143.325L15.7544 148.564L14.438 149.02L12.6247 143.78ZM11.4874 148.331L10.9498 146.778L20.5856 143.443C21.0244 143.291 21.3315 143.113 21.5068 142.91C21.6763 142.704 21.7634 142.487 21.7681 142.259C21.767 142.029 21.7269 141.8 21.6479 141.571C21.5887 141.4 21.5313 141.263 21.4758 141.159C21.4159 141.057 21.368 140.975 21.332 140.914L22.618 140.115C22.694 140.207 22.7843 140.34 22.8891 140.515C22.9983 140.689 23.103 140.92 23.2032 141.21C23.3551 141.649 23.4096 142.111 23.3667 142.598C23.3223 143.08 23.1549 143.526 22.8644 143.936C22.5724 144.342 22.1325 144.647 21.5445 144.85L11.4874 148.331Z" fill="white"/>
<path d="M5.78565 103.558L5.86784 101.833L15.3016 102.282C16.2756 102.329 17.1343 102.6 17.8777 103.095C18.6167 103.586 19.1867 104.257 19.5878 105.108C19.9842 105.959 20.1558 106.944 20.1025 108.061C20.0493 109.179 19.7849 110.143 19.3094 110.952C18.8292 111.761 18.1979 112.378 17.4154 112.8C16.6284 113.219 15.748 113.404 14.774 113.358L5.34024 112.909L5.42243 111.183L14.717 111.626C15.4127 111.659 16.0392 111.536 16.5964 111.255C17.149 110.975 17.5942 110.559 17.9319 110.008C18.2652 109.452 18.4507 108.778 18.4885 107.985C18.5263 107.191 18.4057 106.502 18.1268 105.917C17.8432 105.332 17.4396 104.876 16.9159 104.549C16.3879 104.217 15.776 104.034 15.0803 104.001L5.78565 103.558Z" fill="white"/>
<path d="M15.2252 79.4611L15.2832 80.9946C15.0222 81.0268 14.7575 81.1035 14.4892 81.2248C14.2174 81.3404 13.971 81.5291 13.7498 81.7908C13.5287 82.0525 13.3617 82.4157 13.249 82.8805C13.0946 83.5167 13.1126 84.0825 13.303 84.5779C13.49 85.0676 13.8069 85.3666 14.2536 85.475C14.6507 85.5713 14.9993 85.503 15.2995 85.27C15.5997 85.0371 15.901 84.6324 16.2033 84.0559L16.9567 82.6046C17.4078 81.7298 17.9211 81.1209 18.4964 80.7779C19.0672 80.4338 19.7159 80.3499 20.4424 80.5261C21.038 80.6706 21.5289 80.9713 21.915 81.428C22.3022 81.8803 22.5573 82.4439 22.6802 83.1187C22.8032 83.7936 22.7667 84.5349 22.5707 85.3426C22.3135 86.403 21.8704 87.2249 21.2416 87.8081C20.6127 88.3914 19.8337 88.6682 18.9043 88.6387L18.8931 87.0305C19.4877 87.0219 19.9736 86.8507 20.3508 86.517C20.7291 86.1787 20.9976 85.6824 21.1563 85.0281C21.3369 84.2836 21.3224 83.6542 21.1127 83.1398C20.8996 82.6199 20.5697 82.3057 20.123 82.1974C19.762 82.1098 19.429 82.1628 19.124 82.3564C18.8145 82.5488 18.5354 82.892 18.2866 83.3859L17.4601 85.0202C17.0035 85.9175 16.4841 86.5321 15.9019 86.8639C15.3163 87.1901 14.6648 87.2661 13.9473 87.0921C13.3607 86.9498 12.8817 86.6592 12.5104 86.2203C12.1402 85.7769 11.896 85.2375 11.7778 84.602C11.6607 83.962 11.6908 83.2765 11.8682 82.5455C12.1178 81.5167 12.5393 80.7637 13.1329 80.2866C13.7275 79.8049 14.425 79.5298 15.2252 79.4611Z" fill="white"/>
<path d="M29.1876 44.9567L40.8069 53.2307L39.8372 54.5924L26.2056 54.4275L26.1248 54.541L35.2477 61.0374L34.2458 62.4444L22.6265 54.1704L23.5962 52.8088L37.2666 52.9671L37.3474 52.8536L28.2018 46.341L29.1876 44.9567Z" fill="white"/>
<path d="M56.4463 40.3518C55.7473 41.0183 54.9754 41.4367 54.1306 41.6071C53.2891 41.7743 52.4354 41.6998 51.5693 41.3836C50.7066 41.0642 49.8939 40.5046 49.1313 39.7048C48.3623 38.8982 47.8372 38.0548 47.556 37.1745C47.2782 36.291 47.2428 35.433 47.4498 34.6004C47.6602 33.7647 48.1148 33.0136 48.8138 32.3471C49.5128 31.6806 50.283 31.2638 51.1245 31.0966C51.9693 30.9262 52.8247 31.0024 53.6906 31.3252C54.5599 31.6447 55.379 32.2078 56.148 33.0143C56.9107 33.8141 57.4293 34.6541 57.7039 35.5342C57.9819 36.4112 58.0157 37.2675 57.8053 38.1033C57.5983 38.9358 57.1453 39.6853 56.4463 40.3518ZM55.4274 39.2832C55.9583 38.7769 56.2654 38.2243 56.3486 37.6252C56.4319 37.0262 56.3443 36.4264 56.086 35.8258C55.8278 35.2252 55.4519 34.6661 54.9584 34.1486C54.465 33.6311 53.9228 33.2274 53.332 32.9374C52.7412 32.6475 52.143 32.5281 51.5375 32.5794C50.932 32.6307 50.3637 32.9095 49.8328 33.4157C49.3018 33.922 48.9963 34.4763 48.9163 35.0787C48.8363 35.6811 48.927 36.2843 49.1885 36.8882C49.45 37.4922 49.8275 38.0529 50.3209 38.5705C50.8144 39.088 51.3549 39.49 51.9425 39.7766C52.5302 40.0632 53.1251 40.1792 53.7275 40.1245C54.3298 40.0699 54.8964 39.7894 55.4274 39.2832Z" fill="white"/>
<path d="M70.588 28.9619L62.062 21.7243L63.5151 20.7905L69.8886 26.4308L69.9824 26.3706L67.4759 18.245L68.9525 17.2961L75.2641 22.9431L75.3578 22.8829L72.8899 14.7656L74.343 13.8318L77.3847 24.5939L76.0254 25.4675L69.6133 19.8188L69.4727 19.9091L71.9473 28.0883L70.588 28.9619Z" fill="white"/>
<path d="M133.377 11.886L131.681 11.5591C131.674 11.052 131.581 10.5895 131.402 10.1719C131.227 9.75514 130.986 9.38711 130.678 9.0678C130.376 8.74481 130.023 8.47818 129.619 8.26792C129.215 8.05765 128.781 7.90771 128.316 7.81807C127.468 7.65463 126.658 7.72085 125.887 8.01674C125.121 8.31351 124.454 8.83997 123.888 9.59613C123.326 10.3532 122.928 11.3381 122.694 12.5509C122.46 13.7637 122.463 14.8259 122.704 15.7376C122.949 16.6502 123.372 17.3867 123.973 17.9471C124.579 18.5083 125.306 18.8707 126.154 19.0341C126.619 19.1238 127.078 19.1461 127.532 19.101C127.985 19.0559 128.411 18.9419 128.81 18.7588C129.215 18.572 129.576 18.3177 129.894 17.9958C130.217 17.6703 130.475 17.2755 130.668 16.8116L132.364 17.1384C132.099 17.8297 131.743 18.4254 131.296 18.9258C130.85 19.4261 130.338 19.8263 129.76 20.1263C129.183 20.4217 128.562 20.6118 127.898 20.6966C127.238 20.7823 126.555 20.757 125.848 20.6208C124.654 20.3906 123.648 19.894 122.83 19.1312C122.012 18.3683 121.441 17.3975 121.115 16.2186C120.788 15.0398 120.768 13.7118 121.053 12.2345C121.337 10.7573 121.85 9.53207 122.591 8.55887C123.332 7.58567 124.223 6.8969 125.266 6.49256C126.309 6.08823 127.427 6.00118 128.622 6.23141C129.328 6.36761 129.972 6.59806 130.553 6.92274C131.138 7.2483 131.643 7.65775 132.068 8.15107C132.494 8.63984 132.821 9.19942 133.049 9.82981C133.279 10.4556 133.388 11.1411 133.377 11.886Z" fill="white"/>
<path d="M99.9973 19.1114C99.6537 19.1114 99.3589 18.9884 99.1128 18.7423C98.8667 18.4962 98.7437 18.2014 98.7437 17.8578C98.7437 17.5141 98.8667 17.2193 99.1128 16.9732C99.3589 16.7271 99.6537 16.6041 99.9973 16.6041C100.341 16.6041 100.636 16.7271 100.882 16.9732C101.128 17.2193 101.251 17.5141 101.251 17.8578C101.251 18.0853 101.193 18.2942 101.077 18.4846C100.965 18.675 100.815 18.8282 100.624 18.9443C100.438 19.0557 100.23 19.1114 99.9973 19.1114Z" fill="white"/>
<path d="M132.036 211.623C131.692 211.623 131.397 211.5 131.151 211.254C130.905 211.008 130.782 210.713 130.782 210.369C130.782 210.026 130.905 209.731 131.151 209.485C131.397 209.239 131.692 209.115 132.036 209.115C132.379 209.115 132.674 209.239 132.92 209.485C133.166 209.731 133.289 210.026 133.289 210.369C133.289 210.597 133.231 210.806 133.115 210.996C133.004 211.186 132.853 211.34 132.663 211.456C132.477 211.567 132.268 211.623 132.036 211.623Z" fill="white"/>
<path d="M149.596 25.6869C148.699 25.3279 147.998 24.7996 147.492 24.1019C146.99 23.4059 146.703 22.5984 146.631 21.6792C146.563 20.7618 146.735 19.7901 147.146 18.7641C147.56 17.7296 148.109 16.9015 148.793 16.2801C149.481 15.6603 150.247 15.2717 151.09 15.1141C151.938 14.9583 152.81 15.0599 153.706 15.4188C154.603 15.7778 155.302 16.3053 155.804 17.0012C156.31 17.6989 156.596 18.5087 156.662 19.4304C156.732 20.3539 156.56 21.3329 156.146 22.3675C155.736 23.3934 155.187 24.2141 154.5 24.8295C153.818 25.4467 153.053 25.8332 152.206 25.989C151.362 26.1465 150.492 26.0458 149.596 25.6869ZM150.145 24.3161C150.826 24.5888 151.456 24.6385 152.035 24.4654C152.615 24.2922 153.124 23.9634 153.563 23.479C154.002 22.9945 154.355 22.4204 154.62 21.7566C154.886 21.0927 155.028 20.4318 155.046 19.774C155.065 19.1161 154.925 18.5224 154.627 17.9929C154.328 17.4634 153.839 17.0623 153.158 16.7896C152.477 16.517 151.845 16.4694 151.264 16.6468C150.683 16.8243 150.172 17.1574 149.731 17.6461C149.291 18.1349 148.937 18.7112 148.672 19.375C148.406 20.0389 148.265 20.6976 148.248 21.3512C148.231 22.0047 148.373 22.5941 148.673 23.1193C148.973 23.6445 149.463 24.0434 150.145 24.3161Z" fill="white"/>
<path d="M169.713 26.9642L166.234 32.3782L164.851 31.4895L170.635 22.4897L171.971 23.3482L171.067 24.7544L171.184 24.8297C171.689 24.5083 172.245 24.3469 172.853 24.3457C173.464 24.3406 174.109 24.5565 174.788 24.9933C175.398 25.3849 175.851 25.8525 176.147 26.3963C176.446 26.9361 176.56 27.5395 176.49 28.2066C176.423 28.8697 176.143 29.5841 175.651 30.3497L171.976 36.0684L170.593 35.1797L174.208 29.5548C174.662 28.8478 174.833 28.179 174.719 27.5485C174.608 26.9141 174.232 26.3911 173.592 25.9794C173.15 25.6957 172.694 25.5379 172.224 25.5059C171.757 25.4763 171.306 25.5812 170.871 25.8203C170.435 26.0595 170.05 26.4408 169.713 26.9642Z" fill="white"/>
<path d="M188.508 38.574L187.547 39.5821L183.534 35.7563L184.495 34.7481L188.508 38.574ZM187.434 34.0082L188.623 35.1425L181.587 42.5221C181.266 42.8582 181.075 43.1567 181.012 43.4176C180.956 43.6784 180.978 43.9111 181.078 44.1156C181.185 44.32 181.325 44.5055 181.5 44.6721C181.631 44.7971 181.745 44.8929 181.842 44.9595C181.942 45.0228 182.022 45.0735 182.082 45.1115L181.305 46.4108C181.195 46.3642 181.054 46.2871 180.881 46.1795C180.704 46.0754 180.505 45.9175 180.283 45.706C179.947 45.3856 179.687 44.9994 179.502 44.5472C179.32 44.0983 179.265 43.6251 179.335 43.1275C179.409 42.6331 179.66 42.1608 180.09 41.7105L187.434 34.0082Z" fill="white"/>
<path d="M190.676 57.9972C190.282 57.445 190.03 56.8698 189.917 56.2715C189.808 55.6706 189.858 55.0964 190.067 54.5488C190.279 53.9985 190.669 53.5214 191.237 53.1174C191.736 52.7619 192.211 52.572 192.661 52.5478C193.115 52.521 193.548 52.6088 193.96 52.8112C194.372 53.0137 194.763 53.2825 195.133 53.6177C195.509 53.954 195.868 54.3057 196.209 54.6727C196.654 55.1537 197.011 55.5466 197.279 55.8515C197.554 56.1574 197.789 56.355 197.983 56.4443C198.181 56.5375 198.387 56.5073 198.603 56.3538L198.648 56.3214C199.208 55.9228 199.534 55.4599 199.626 54.9327C199.721 54.4092 199.549 53.8392 199.11 53.2227C198.654 52.5835 198.158 52.182 197.619 52.0182C197.081 51.8544 196.6 51.8119 196.177 51.8906L195.726 50.2966C196.417 50.1464 197.045 50.1555 197.609 50.3236C198.18 50.4928 198.685 50.7608 199.122 51.1274C199.567 51.495 199.945 51.8983 200.257 52.337C200.457 52.6169 200.652 52.9626 200.842 53.3742C201.039 53.7869 201.157 54.2362 201.195 54.722C201.236 55.2116 201.131 55.7167 200.88 56.2372C200.629 56.7577 200.158 57.2644 199.466 57.7573L193.724 61.8459L192.771 60.5069L193.951 59.6666L193.902 59.5985C193.649 59.6424 193.338 59.6352 192.972 59.5769C192.606 59.5186 192.221 59.3675 191.82 59.1235C191.418 58.8794 191.037 58.504 190.676 57.9972ZM192.024 57.3449C192.401 57.8745 192.823 58.2467 193.289 58.4617C193.759 58.6804 194.224 58.7653 194.685 58.7163C195.149 58.6711 195.562 58.5192 195.925 58.2607L197.151 57.388C197.042 57.3798 196.891 57.2994 196.697 57.1469C196.509 56.9955 196.306 56.8098 196.086 56.5898C195.873 56.3708 195.668 56.1549 195.471 55.942C195.28 55.7301 195.124 55.559 195.003 55.4288C194.71 55.1131 194.404 54.8403 194.087 54.6105C193.776 54.3817 193.454 54.246 193.122 54.2034C192.796 54.162 192.462 54.2624 192.122 54.5048C191.657 54.8361 191.428 55.2587 191.434 55.7725C191.448 56.2875 191.644 56.8116 192.024 57.3449Z" fill="white"/>
<path d="M200.046 74.1323C199.629 73.22 199.486 72.336 199.616 71.4803C199.746 70.6247 200.108 69.8469 200.702 69.1468C201.296 68.4467 202.079 67.8749 203.05 67.4312C204.038 66.9799 204.993 66.7632 205.915 66.7811C206.843 66.8014 207.67 67.0415 208.396 67.5013C209.128 67.9635 209.694 68.6338 210.095 69.5123C210.408 70.1966 210.563 70.8711 210.56 71.5359C210.557 72.2007 210.408 72.8126 210.112 73.3714C209.816 73.9303 209.383 74.3909 208.813 74.7531L208.131 73.2579C208.522 72.9414 208.799 72.5086 208.962 71.9595C209.131 71.4128 209.065 70.8099 208.764 70.1511C208.497 69.5682 208.112 69.1266 207.607 68.8262C207.109 68.5281 206.529 68.3819 205.868 68.3877C205.213 68.3958 204.518 68.5676 203.783 68.9033C203.032 69.2466 202.431 69.6639 201.981 70.155C201.534 70.6504 201.255 71.186 201.146 71.7618C201.038 72.3419 201.119 72.9276 201.389 73.5189C201.567 73.9075 201.795 74.2293 202.075 74.4843C202.355 74.7394 202.672 74.9189 203.025 75.0228C203.379 75.1267 203.755 75.1441 204.152 75.075L204.835 76.5701C204.222 76.748 203.609 76.7752 202.996 76.6518C202.389 76.5307 201.826 76.2594 201.307 75.838C200.794 75.4189 200.374 74.8503 200.046 74.1323Z" fill="white"/>
<path d="M216.972 90.5705L215.618 90.8989L214.311 85.5111L215.665 85.1827L216.972 90.5705ZM218.537 86.1487L218.924 87.7461L209.015 90.1501C208.564 90.2595 208.241 90.4071 208.047 90.5926C207.859 90.7817 207.752 90.9893 207.725 91.2154C207.705 91.445 207.723 91.6772 207.78 91.9118C207.822 92.0878 207.867 92.23 207.912 92.3384C207.962 92.4458 208.002 92.5316 208.032 92.596L206.676 93.269C206.609 93.1706 206.531 93.0293 206.444 92.8451C206.352 92.662 206.269 92.4216 206.197 92.1237C206.088 91.6725 206.077 91.2067 206.166 90.7265C206.256 90.2507 206.465 89.8226 206.794 89.4419C207.123 89.0658 207.59 88.8044 208.194 88.6578L218.537 86.1487Z" fill="white"/>
<path d="M221.218 124.383L220.972 126.092L211.624 124.748C210.659 124.61 209.83 124.258 209.137 123.694C208.448 123.135 207.944 122.413 207.626 121.528C207.312 120.643 207.235 119.647 207.394 118.539C207.553 117.431 207.908 116.497 208.459 115.737C209.013 114.977 209.7 114.424 210.52 114.077C211.343 113.736 212.237 113.634 213.202 113.773L222.55 115.117L222.305 116.827L213.094 115.503C212.405 115.403 211.769 115.467 211.188 115.693C210.611 115.92 210.129 116.291 209.74 116.808C209.355 117.329 209.107 117.983 208.994 118.769C208.881 119.555 208.935 120.252 209.157 120.861C209.384 121.471 209.742 121.963 210.232 122.339C210.727 122.719 211.318 122.959 212.008 123.058L221.218 124.383Z" fill="white"/>
<path d="M210.063 150.301L210.151 148.769C210.414 148.761 210.685 148.71 210.964 148.615C211.245 148.526 211.509 148.361 211.754 148.122C211.999 147.882 212.199 147.537 212.356 147.085C212.57 146.466 212.606 145.901 212.463 145.39C212.324 144.885 212.037 144.557 211.602 144.406C211.216 144.273 210.863 144.308 210.542 144.511C210.221 144.714 209.882 145.089 209.527 145.634L208.639 147.007C208.106 147.835 207.538 148.392 206.932 148.679C206.331 148.967 205.678 148.989 204.971 148.745C204.392 148.544 203.932 148.198 203.591 147.707C203.248 147.22 203.048 146.635 202.99 145.951C202.932 145.268 203.038 144.533 203.31 143.748C203.667 142.717 204.186 141.941 204.868 141.42C205.549 140.899 206.351 140.697 207.273 140.815L207.132 142.417C206.539 142.369 206.039 142.493 205.632 142.79C205.223 143.09 204.909 143.559 204.688 144.195C204.438 144.919 204.392 145.547 204.552 146.079C204.715 146.617 205.014 146.961 205.448 147.111C205.799 147.233 206.135 147.212 206.457 147.048C206.784 146.886 207.094 146.571 207.389 146.103L208.367 144.554C208.907 143.705 209.482 143.142 210.093 142.867C210.707 142.598 211.363 142.584 212.061 142.826C212.631 143.023 213.081 143.358 213.408 143.83C213.735 144.307 213.927 144.867 213.984 145.511C214.04 146.159 213.944 146.839 213.698 147.549C213.352 148.55 212.861 149.259 212.225 149.678C211.587 150.101 210.867 150.309 210.063 150.301Z" fill="white"/>
<path d="M196.554 183.296L185.774 173.955L186.869 172.692L200.423 174.152L200.514 174.047L192.05 166.712L193.181 165.407L203.962 174.748L202.867 176.011L189.273 174.554L189.182 174.66L197.667 182.012L196.554 183.296Z" fill="white"/>
<path d="M172.151 187.375C172.91 186.778 173.719 186.435 174.576 186.346C175.429 186.259 176.272 186.414 177.104 186.812C177.933 187.212 178.689 187.846 179.372 188.715C180.061 189.591 180.503 190.48 180.699 191.383C180.892 192.289 180.846 193.146 180.56 193.956C180.272 194.768 179.748 195.472 178.988 196.069C178.229 196.666 177.423 197.008 176.569 197.094C175.712 197.184 174.868 197.026 174.037 196.623C173.202 196.222 172.44 195.584 171.751 194.708C171.068 193.839 170.631 192.954 170.441 192.051C170.248 191.152 170.296 190.296 170.585 189.484C170.87 188.675 171.392 187.972 172.151 187.375ZM173.064 188.536C172.487 188.989 172.129 189.51 171.989 190.099C171.85 190.687 171.88 191.292 172.08 191.915C172.28 192.537 172.601 193.13 173.043 193.692C173.485 194.254 173.986 194.707 174.547 195.052C175.107 195.397 175.691 195.572 176.299 195.579C176.907 195.585 177.499 195.362 178.076 194.908C178.652 194.455 179.009 193.932 179.146 193.34C179.283 192.748 179.25 192.139 179.047 191.513C178.844 190.887 178.522 190.293 178.08 189.731C177.638 189.169 177.138 188.717 176.58 188.376C176.022 188.035 175.441 187.863 174.836 187.86C174.231 187.857 173.641 188.082 173.064 188.536Z" fill="white"/>
<path d="M155.837 197.781L163.636 205.797L162.101 206.588L156.293 200.367L156.194 200.419L157.916 208.746L156.356 209.55L150.61 203.328L150.511 203.379L152.196 211.695L150.661 212.486L148.656 201.484L150.092 200.743L155.938 206.976L156.087 206.899L154.401 198.522L155.837 197.781Z" fill="white"/>
</svg>
