<svg width="228" height="227" viewBox="0 0 228 227" fill="none" xmlns="http://www.w3.org/2000/svg">
<path d="M103.617 216.229L105.336 216.393C105.391 216.898 105.527 217.349 105.746 217.748C105.96 218.146 106.235 218.489 106.571 218.778C106.902 219.071 107.279 219.303 107.701 219.474C108.123 219.645 108.57 219.753 109.041 219.798C109.901 219.88 110.701 219.737 111.44 219.369C112.175 219.001 112.788 218.413 113.281 217.607C113.768 216.8 114.071 215.781 114.188 214.552C114.305 213.322 114.201 212.265 113.875 211.38C113.544 210.495 113.053 209.802 112.401 209.302C111.745 208.801 110.987 208.509 110.127 208.427C109.656 208.382 109.196 208.403 108.75 208.491C108.303 208.579 107.889 208.733 107.509 208.953C107.124 209.178 106.788 209.465 106.503 209.816C106.213 210.171 105.993 210.588 105.845 211.068L104.125 210.904C104.324 210.191 104.622 209.564 105.018 209.024C105.415 208.483 105.887 208.036 106.434 207.682C106.98 207.333 107.58 207.085 108.233 206.938C108.882 206.79 109.564 206.75 110.281 206.818C111.492 206.934 112.54 207.333 113.427 208.014C114.313 208.696 114.975 209.608 115.411 210.751C115.848 211.893 115.995 213.213 115.852 214.711C115.709 216.208 115.315 217.477 114.67 218.516C114.025 219.555 113.203 220.326 112.203 220.827C111.204 221.329 110.099 221.522 108.888 221.406C108.171 221.338 107.509 221.17 106.9 220.901C106.286 220.633 105.745 220.273 105.275 219.823C104.804 219.377 104.425 218.851 104.138 218.245C103.85 217.644 103.676 216.972 103.617 216.229Z" fill="black"/>
<path d="M88.9292 203.367C89.8559 203.639 90.6042 204.098 91.1742 204.744C91.7397 205.39 92.1021 206.166 92.2613 207.074C92.416 207.981 92.3377 208.965 92.0264 210.025C91.7124 211.094 91.2446 211.971 90.6228 212.655C89.9966 213.337 89.2712 213.797 88.4467 214.034C87.6177 214.269 86.7399 214.251 85.8132 213.979C84.8865 213.707 84.1404 213.248 83.5749 212.603C83.005 211.957 82.6433 211.178 82.4898 210.267C82.3319 209.354 82.4099 208.363 82.7239 207.294C83.0353 206.233 83.5034 205.364 84.1283 204.686C84.7487 204.007 85.4735 203.55 86.3024 203.314C87.127 203.077 88.0026 203.095 88.9292 203.367ZM88.5132 204.783C87.8093 204.577 87.1772 204.587 86.6168 204.815C86.0564 205.042 85.5807 205.418 85.1897 205.942C84.7987 206.466 84.5025 207.071 84.301 207.757C84.0996 208.443 84.021 209.114 84.0653 209.771C84.1097 210.428 84.3054 211.005 84.6526 211.504C84.9997 212.003 85.5253 212.356 86.2292 212.562C86.9331 212.769 87.5659 212.756 88.1276 212.524C88.6893 212.293 89.1663 211.912 89.5586 211.384C89.9509 210.855 90.2478 210.248 90.4492 209.562C90.6507 208.876 90.7286 208.207 90.683 207.555C90.6373 206.902 90.4403 206.329 90.0918 205.835C89.7434 205.341 89.2172 204.99 88.5132 204.783Z" fill="black"/>
<path d="M70.1698 203.741L73.1188 198.021L74.5798 198.774L69.6776 208.283L68.2661 207.555L69.0321 206.07L68.9083 206.006C68.4365 206.374 67.8981 206.587 67.293 206.646C66.6858 206.709 66.0232 206.556 65.3051 206.186C64.6612 205.854 64.166 205.431 63.8193 204.918C63.4704 204.409 63.2991 203.819 63.3053 203.149C63.3094 202.482 63.52 201.744 63.937 200.935L67.0519 194.893L68.5129 195.646L65.4491 201.589C65.064 202.336 64.9579 203.018 65.131 203.635C65.3019 204.256 65.7258 204.741 66.4026 205.09C66.869 205.331 67.338 205.444 67.8095 205.431C68.277 205.416 68.716 205.269 69.1264 204.99C69.5369 204.71 69.8847 204.294 70.1698 203.741Z" fill="black"/>
<path d="M47.5673 194.237L48.4284 193.142L52.7863 196.569L51.9253 197.664L47.5673 194.237ZM49.0707 198.68L47.7786 197.664L54.0818 189.649C54.3688 189.284 54.5312 188.968 54.5689 188.703C54.6 188.438 54.556 188.208 54.4369 188.014C54.3113 187.821 54.1536 187.649 53.9638 187.5C53.8215 187.388 53.6989 187.304 53.5962 187.246C53.4906 187.193 53.4061 187.15 53.3428 187.118L53.9927 185.751C54.1062 185.787 54.2543 185.85 54.437 185.941C54.6227 186.028 54.8359 186.166 55.0768 186.355C55.4418 186.642 55.7378 187.002 55.9648 187.434C56.1881 187.864 56.2884 188.33 56.2658 188.832C56.2395 189.331 56.034 189.825 55.6494 190.314L49.0707 198.68Z" fill="black"/>
<path d="M43.5632 175.108C44.0071 175.62 44.3135 176.168 44.4824 176.753C44.6477 177.341 44.6525 177.918 44.4969 178.483C44.3378 179.05 43.9951 179.562 43.4687 180.019C43.0055 180.42 42.5509 180.654 42.1051 180.721C41.6557 180.791 41.2163 180.745 40.7868 180.582C40.3573 180.42 39.9426 180.189 39.5426 179.891C39.1361 179.592 38.7456 179.276 38.3711 178.943C37.8822 178.506 37.4897 178.149 37.1936 177.871C36.8909 177.593 36.6384 177.418 36.4361 177.348C36.2307 177.274 36.028 177.324 35.828 177.497L35.7859 177.534C35.2665 177.984 34.9861 178.475 34.9447 179.009C34.9002 179.539 35.1257 180.09 35.6214 180.662C36.1352 181.255 36.668 181.608 37.2196 181.719C37.7711 181.831 38.2536 181.828 38.667 181.709L39.2676 183.253C38.5938 183.469 37.9681 183.519 37.3903 183.406C36.806 183.291 36.2785 183.073 35.8078 182.749C35.3307 182.425 34.9157 182.06 34.563 181.653C34.338 181.393 34.1111 181.068 33.8824 180.676C33.6471 180.284 33.4873 179.848 33.4032 179.368C33.316 178.884 33.3724 178.372 33.5724 177.83C33.7725 177.288 34.1936 176.738 34.8358 176.182L40.1627 171.566L41.2391 172.808L40.1442 173.757L40.199 173.82C40.4474 173.752 40.7568 173.73 41.1271 173.753C41.4974 173.776 41.8941 173.89 42.3173 174.095C42.7404 174.3 43.1557 174.637 43.5632 175.108ZM42.2831 175.885C41.8574 175.394 41.4021 175.063 40.9172 174.894C40.4292 174.72 39.9581 174.68 39.5038 174.773C39.0465 174.862 38.6493 175.052 38.3125 175.344L37.1755 176.329C37.2843 176.327 37.4425 176.393 37.6502 176.526C37.8514 176.659 38.0716 176.825 38.3109 177.023C38.5436 177.221 38.7683 177.416 38.9849 177.609C39.195 177.802 39.3665 177.958 39.4996 178.076C39.8215 178.362 40.1514 178.605 40.4894 178.803C40.8209 179.001 41.1541 179.106 41.4891 179.117C41.8175 179.127 42.1396 178.995 42.4554 178.722C42.8871 178.348 43.0751 177.905 43.0194 177.394C42.9573 176.883 42.7118 176.38 42.2831 175.885Z" fill="black"/>
<path d="M32.7015 157.134C33.203 158.003 33.4297 158.869 33.3817 159.733C33.3337 160.598 33.0473 161.406 32.5226 162.16C31.9978 162.913 31.273 163.557 30.3481 164.091C29.4071 164.634 28.4769 164.94 27.5575 165.01C26.6317 165.078 25.7858 164.918 25.0198 164.529C24.2474 164.139 23.6198 163.525 23.1369 162.689C22.7608 162.037 22.5425 161.381 22.4819 160.718C22.4214 160.056 22.5119 159.433 22.7535 158.849C22.9951 158.264 23.3822 157.765 23.9148 157.35L24.7367 158.773C24.3771 159.126 24.1425 159.583 24.0327 160.145C23.9165 160.705 24.0395 161.299 24.4017 161.926C24.7221 162.481 25.1478 162.884 25.6788 163.135C26.2034 163.385 26.7944 163.475 27.4518 163.406C28.1029 163.336 28.7783 163.099 29.478 162.695C30.1937 162.282 30.752 161.809 31.1528 161.278C31.5513 160.742 31.7777 160.182 31.8321 159.599C31.8842 159.011 31.7478 158.436 31.4227 157.873C31.2091 157.503 30.951 157.204 30.6481 156.977C30.3453 156.75 30.0129 156.601 29.6509 156.531C29.289 156.461 28.9135 156.48 28.5247 156.586L27.7028 155.163C28.2961 154.927 28.9036 154.842 29.5254 154.907C30.1407 154.97 30.7269 155.186 31.2837 155.556C31.8342 155.925 32.3068 156.451 32.7015 157.134Z" fill="black"/>
<path d="M12.8886 143.78L14.205 143.325L16.0183 148.564L14.7019 149.02L12.8886 143.78ZM11.7513 148.331L11.2137 146.778L20.8495 143.443C21.2883 143.291 21.5954 143.113 21.7708 142.91C21.9402 142.704 22.0273 142.487 22.032 142.259C22.0309 142.029 21.9908 141.8 21.9118 141.571C21.8526 141.4 21.7952 141.263 21.7397 141.159C21.6798 141.057 21.6319 140.975 21.5959 140.914L22.8819 140.115C22.9579 140.207 23.0482 140.34 23.153 140.515C23.2622 140.689 23.3669 140.92 23.4672 141.21C23.619 141.649 23.6735 142.111 23.6306 142.598C23.5862 143.08 23.4188 143.526 23.1283 143.936C22.8364 144.342 22.3964 144.647 21.8084 144.85L11.7513 148.331Z" fill="black"/>
<path d="M6.04969 103.558L6.13188 101.833L15.5656 102.282C16.5396 102.329 17.3983 102.6 18.1417 103.095C18.8807 103.586 19.4507 104.257 19.8518 105.108C20.2482 105.959 20.4198 106.944 20.3666 108.061C20.3133 109.179 20.0489 110.143 19.5734 110.952C19.0932 111.761 18.4619 112.378 17.6794 112.8C16.8925 113.219 16.012 113.404 15.038 113.358L5.60428 112.909L5.68647 111.183L14.9811 111.626C15.6768 111.659 16.3033 111.536 16.8605 111.255C17.4131 110.975 17.8582 110.559 18.1959 110.008C18.5292 109.452 18.7147 108.778 18.7525 107.985C18.7903 107.191 18.6697 106.502 18.3908 105.917C18.1072 105.332 17.7036 104.876 17.18 104.549C16.6519 104.217 16.04 104.034 15.3443 104.001L6.04969 103.558Z" fill="black"/>
<path d="M15.4892 79.4611L15.5472 80.9946C15.2861 81.0268 15.0215 81.1035 14.7531 81.2248C14.4814 81.3404 14.235 81.5291 14.0138 81.7908C13.7927 82.0525 13.6257 82.4157 13.5129 82.8805C13.3586 83.5167 13.3766 84.0825 13.567 84.5778C13.754 85.0676 14.0709 85.3666 14.5176 85.475C14.9147 85.5713 15.2633 85.503 15.5635 85.27C15.8637 85.0371 16.165 84.6323 16.4673 84.0559L17.2207 82.6046C17.6718 81.7298 18.1851 81.1209 18.7604 80.7779C19.3312 80.4338 19.9799 80.3498 20.7064 80.5261C21.302 80.6706 21.7929 80.9712 22.179 81.428C22.5662 81.8803 22.8212 82.4439 22.9442 83.1187C23.0672 83.7936 23.0307 84.5349 22.8347 85.3426C22.5775 86.403 22.1344 87.2248 21.5056 87.8081C20.8767 88.3913 20.0976 88.6682 19.1683 88.6386L19.1571 87.0305C19.7517 87.0219 20.2375 86.8507 20.6147 86.5169C20.993 86.1787 21.2615 85.6824 21.4203 85.0281C21.6009 84.2836 21.5864 83.6541 21.3767 83.1398C21.1636 82.6199 20.8337 82.3057 20.3869 82.1973C20.026 82.1098 19.693 82.1628 19.388 82.3563C19.0785 82.5488 18.7994 82.892 18.5505 83.3859L17.7241 85.0201C17.2675 85.9175 16.7481 86.5321 16.1659 86.8639C15.5803 87.1901 14.9288 87.2661 14.2113 87.0921C13.6247 86.9498 13.1457 86.6592 12.7744 86.2203C12.4042 85.7769 12.1599 85.2375 12.0418 84.602C11.9247 83.962 11.9548 83.2765 12.1321 82.5455C12.3817 81.5167 12.8033 80.7637 13.3969 80.2865C13.9915 79.8049 14.6889 79.5297 15.4892 79.4611Z" fill="black"/>
<path d="M29.4516 44.9567L41.0709 53.2307L40.1013 54.5924L26.4696 54.4275L26.3888 54.541L35.5118 61.0374L34.5098 62.4444L22.8906 54.1704L23.8602 52.8088L37.5307 52.9671L37.6115 52.8536L28.4659 46.341L29.4516 44.9567Z" fill="black"/>
<path d="M56.7103 40.3518C56.0113 41.0183 55.2394 41.4367 54.3946 41.6071C53.5531 41.7743 52.6994 41.6998 51.8333 41.3836C50.9706 41.0642 50.1579 40.5046 49.3953 39.7048C48.6263 38.8982 48.1012 38.0548 47.82 37.1745C47.5421 36.291 47.5067 35.433 47.7137 34.6004C47.9241 33.7647 48.3788 33.0136 49.0778 32.3471C49.7768 31.6806 50.547 31.2638 51.3885 31.0966C52.2333 30.9262 53.0887 31.0024 53.9546 31.3252C54.8239 31.6447 55.643 32.2078 56.412 33.0143C57.1746 33.8141 57.6933 34.6541 57.9679 35.5342C58.2459 36.4112 58.2797 37.2675 58.0693 38.1033C57.8623 38.9358 57.4093 39.6853 56.7103 40.3518ZM55.6913 39.2832C56.2223 38.7769 56.5294 38.2243 56.6126 37.6252C56.6959 37.0262 56.6083 36.4264 56.35 35.8258C56.0917 35.2252 55.7159 34.6661 55.2224 34.1486C54.729 33.6311 54.1868 33.2274 53.596 32.9374C53.0052 32.6475 52.407 32.5281 51.8015 32.5794C51.1959 32.6307 50.6277 32.9095 50.0967 33.4157C49.5658 33.922 49.2603 34.4763 49.1803 35.0787C49.1002 35.6811 49.191 36.2843 49.4525 36.8882C49.714 37.4922 50.0915 38.0529 50.5849 38.5705C51.0784 39.088 51.6189 39.49 52.2065 39.7766C52.7941 40.0632 53.3891 40.1792 53.9914 40.1245C54.5937 40.0699 55.1604 39.7894 55.6913 39.2832Z" fill="black"/>
<path d="M70.852 28.9619L62.326 21.7243L63.7791 20.7905L70.1526 26.4308L70.2464 26.3706L67.74 18.245L69.2165 17.2961L75.5281 22.9431L75.6219 22.8829L73.1539 14.7656L74.607 13.8318L77.6488 24.5939L76.2894 25.4675L69.8774 19.8188L69.7367 19.9091L72.2113 28.0883L70.852 28.9619Z" fill="black"/>
<path d="M133.641 11.886L131.944 11.5591C131.938 11.0519 131.845 10.5895 131.666 10.1719C131.491 9.75511 131.249 9.38708 130.942 9.06777C130.64 8.74478 130.287 8.47815 129.883 8.26789C129.479 8.05762 129.045 7.90767 128.58 7.81804C127.732 7.6546 126.922 7.72082 126.151 8.01671C125.385 8.31348 124.718 8.83994 124.152 9.5961C123.589 10.3531 123.192 11.3381 122.958 12.5508C122.724 13.7636 122.727 14.8259 122.968 15.7376C123.213 16.6502 123.636 17.3866 124.237 17.947C124.843 18.5083 125.57 18.8707 126.418 19.0341C126.883 19.1237 127.342 19.146 127.795 19.101C128.249 19.0559 128.675 18.9418 129.074 18.7587C129.479 18.5719 129.84 18.3176 130.158 17.9958C130.481 17.6702 130.739 17.2755 130.932 16.8115L132.628 17.1384C132.363 17.8296 132.007 18.4254 131.56 18.9257C131.114 19.4261 130.602 19.8263 130.024 20.1263C129.447 20.4217 128.826 20.6118 128.162 20.6966C127.502 20.7823 126.819 20.757 126.112 20.6208C124.918 20.3905 123.912 19.894 123.094 19.1311C122.276 18.3683 121.705 17.3974 121.378 16.2186C121.052 15.0398 121.032 13.7117 121.316 12.2345C121.601 10.7573 122.114 9.53204 122.855 8.55884C123.596 7.58564 124.487 6.89687 125.53 6.49253C126.573 6.0882 127.691 6.00115 128.886 6.23138C129.592 6.36758 130.236 6.59803 130.816 6.92271C131.402 7.24827 131.907 7.65772 132.332 8.15104C132.758 8.63981 133.085 9.19939 133.313 9.82978C133.543 10.4556 133.652 11.141 133.641 11.886Z" fill="black"/>
<path d="M100.261 19.1114C99.9176 19.1114 99.6227 18.9884 99.3767 18.7423C99.1306 18.4962 99.0075 18.2014 99.0075 17.8578C99.0075 17.5141 99.1306 17.2193 99.3767 16.9732C99.6227 16.7271 99.9176 16.6041 100.261 16.6041C100.605 16.6041 100.9 16.7271 101.146 16.9732C101.392 17.2193 101.515 17.5141 101.515 17.8578C101.515 18.0853 101.457 18.2942 101.341 18.4846C101.229 18.675 101.078 18.8282 100.888 18.9443C100.702 19.0557 100.493 19.1114 100.261 19.1114Z" fill="black"/>
<path d="M132.3 211.623C131.956 211.623 131.661 211.5 131.415 211.254C131.169 211.008 131.046 210.713 131.046 210.369C131.046 210.026 131.169 209.731 131.415 209.485C131.661 209.239 131.956 209.115 132.3 209.115C132.643 209.115 132.938 209.239 133.184 209.485C133.43 209.731 133.553 210.026 133.553 210.369C133.553 210.597 133.495 210.806 133.379 210.996C133.268 211.186 133.117 211.34 132.926 211.456C132.741 211.567 132.532 211.623 132.3 211.623Z" fill="black"/>
<path d="M149.86 25.6869C148.963 25.3279 148.262 24.7996 147.756 24.1019C147.254 23.4059 146.967 22.5984 146.895 21.6792C146.827 20.7618 146.999 19.7901 147.41 18.7641C147.824 17.7296 148.373 16.9015 149.057 16.2801C149.745 15.6603 150.511 15.2717 151.354 15.1141C152.202 14.9583 153.074 15.0599 153.97 15.4188C154.867 15.7778 155.566 16.3053 156.068 17.0012C156.574 17.6989 156.86 18.5087 156.926 19.4304C156.996 20.3539 156.824 21.3329 156.41 22.3675C156 23.3934 155.451 24.2141 154.764 24.8295C154.082 25.4467 153.317 25.8332 152.47 25.989C151.626 26.1465 150.756 26.0458 149.86 25.6869ZM150.409 24.3161C151.09 24.5888 151.72 24.6385 152.299 24.4654C152.879 24.2922 153.388 23.9634 153.827 23.479C154.266 22.9945 154.619 22.4204 154.884 21.7566C155.15 21.0927 155.292 20.4318 155.31 19.774C155.329 19.1161 155.189 18.5224 154.891 17.9929C154.592 17.4634 154.103 17.0623 153.422 16.7896C152.741 16.517 152.109 16.4694 151.528 16.6468C150.947 16.8243 150.436 17.1574 149.995 17.6461C149.555 18.1349 149.201 18.7112 148.936 19.375C148.67 20.0389 148.529 20.6976 148.512 21.3512C148.495 22.0047 148.637 22.5941 148.937 23.1193C149.237 23.6445 149.727 24.0434 150.409 24.3161Z" fill="black"/>
<path d="M169.977 26.9642L166.498 32.3782L165.115 31.4895L170.899 22.4897L172.235 23.3482L171.331 24.7544L171.448 24.8297C171.953 24.5083 172.509 24.3469 173.117 24.3457C173.727 24.3406 174.373 24.5565 175.052 24.9933C175.662 25.3849 176.114 25.8525 176.411 26.3963C176.71 26.9361 176.824 27.5395 176.754 28.2066C176.687 28.8697 176.407 29.5841 175.915 30.3497L172.24 36.0684L170.857 35.1797L174.472 29.5548C174.926 28.8478 175.097 28.179 174.983 27.5485C174.872 26.9141 174.496 26.3911 173.856 25.9794C173.414 25.6957 172.958 25.5379 172.487 25.5059C172.021 25.4763 171.57 25.5812 171.135 25.8203C170.699 26.0595 170.314 26.4408 169.977 26.9642Z" fill="black"/>
<path d="M188.772 38.574L187.811 39.5821L183.798 35.7563L184.76 34.7481L188.772 38.574ZM187.698 34.0082L188.887 35.1425L181.851 42.5221C181.53 42.8582 181.339 43.1567 181.276 43.4176C181.22 43.6784 181.242 43.9111 181.342 44.1156C181.449 44.32 181.589 44.5055 181.764 44.6721C181.895 44.7971 182.009 44.8929 182.106 44.9595C182.206 45.0228 182.286 45.0735 182.346 45.1115L181.569 46.4108C181.459 46.3642 181.318 46.2871 181.145 46.1795C180.968 46.0754 180.769 45.9175 180.547 45.706C180.211 45.3856 179.951 44.9994 179.766 44.5472C179.584 44.0983 179.529 43.6251 179.599 43.1275C179.673 42.6331 179.924 42.1608 180.354 41.7105L187.698 34.0082Z" fill="black"/>
<path d="M190.94 57.9972C190.546 57.445 190.294 56.8698 190.181 56.2715C190.072 55.6706 190.122 55.0964 190.331 54.5488C190.543 53.9985 190.933 53.5214 191.5 53.1174C192 52.7619 192.474 52.572 192.925 52.5478C193.379 52.521 193.812 52.6088 194.224 52.8112C194.636 53.0137 195.027 53.2825 195.397 53.6177C195.773 53.954 196.132 54.3057 196.473 54.6727C196.918 55.1537 197.275 55.5466 197.543 55.8515C197.818 56.1574 198.053 56.355 198.247 56.4443C198.445 56.5375 198.651 56.5073 198.867 56.3538L198.912 56.3214C199.472 55.9228 199.798 55.4599 199.89 54.9327C199.985 54.4092 199.812 53.8392 199.373 53.2227C198.918 52.5835 198.421 52.182 197.883 52.0182C197.345 51.8544 196.864 51.8119 196.441 51.8906L195.99 50.2966C196.681 50.1464 197.309 50.1555 197.873 50.3236C198.444 50.4928 198.948 50.7608 199.386 51.1274C199.83 51.495 200.209 51.8983 200.521 52.337C200.721 52.6169 200.915 52.9626 201.106 53.3742C201.303 53.7869 201.42 54.2362 201.459 54.722C201.499 55.2116 201.395 55.7167 201.144 56.2372C200.893 56.7577 200.422 57.2644 199.73 57.7573L193.988 61.8459L193.035 60.5069L194.215 59.6666L194.166 59.5985C193.912 59.6424 193.602 59.6352 193.236 59.5769C192.87 59.5186 192.485 59.3675 192.084 59.1235C191.682 58.8794 191.301 58.504 190.94 57.9972ZM192.288 57.3449C192.665 57.8745 193.087 58.2467 193.553 58.4617C194.023 58.6804 194.488 58.7653 194.949 58.7163C195.413 58.6711 195.826 58.5192 196.189 58.2607L197.415 57.388C197.306 57.3798 197.155 57.2994 196.961 57.1469C196.773 56.9955 196.57 56.8098 196.35 56.5898C196.137 56.3708 195.932 56.1549 195.735 55.942C195.544 55.7301 195.388 55.559 195.267 55.4288C194.974 55.1131 194.668 54.8403 194.351 54.6105C194.04 54.3817 193.718 54.246 193.385 54.2034C193.059 54.162 192.726 54.2624 192.386 54.5048C191.921 54.8361 191.691 55.2587 191.698 55.7725C191.712 56.2875 191.908 56.8116 192.288 57.3449Z" fill="black"/>
<path d="M200.31 74.1323C199.893 73.22 199.75 72.336 199.88 71.4803C200.01 70.6247 200.372 69.8469 200.966 69.1468C201.56 68.4467 202.343 67.8749 203.314 67.4312C204.302 66.9799 205.257 66.7632 206.179 66.7811C207.107 66.8014 207.934 67.0415 208.66 67.5013C209.392 67.9635 209.958 68.6338 210.359 69.5123C210.672 70.1966 210.827 70.8711 210.824 71.5359C210.821 72.2007 210.672 72.8126 210.376 73.3714C210.08 73.9303 209.647 74.3909 209.077 74.7531L208.395 73.2579C208.786 72.9414 209.063 72.5086 209.226 71.9595C209.395 71.4128 209.329 70.8099 209.028 70.1511C208.762 69.5682 208.376 69.1266 207.871 68.8262C207.373 68.5281 206.793 68.3819 206.132 68.3877C205.477 68.3958 204.782 68.5676 204.048 68.9033C203.296 69.2466 202.695 69.6639 202.246 70.155C201.798 70.6504 201.519 71.186 201.41 71.7618C201.302 72.3419 201.383 72.9276 201.653 73.5189C201.831 73.9075 202.059 74.2293 202.339 74.4843C202.619 74.7394 202.936 74.9189 203.289 75.0228C203.643 75.1267 204.019 75.1441 204.416 75.075L205.099 76.5701C204.486 76.748 203.873 76.7752 203.26 76.6518C202.653 76.5307 202.091 76.2594 201.571 75.838C201.058 75.4189 200.638 74.8503 200.31 74.1323Z" fill="black"/>
<path d="M217.236 90.5705L215.882 90.8989L214.575 85.5111L215.929 85.1826L217.236 90.5705ZM218.801 86.1487L219.188 87.7461L209.279 90.15C208.828 90.2595 208.505 90.407 208.311 90.5926C208.123 90.7816 208.016 90.9892 207.989 91.2154C207.969 91.445 207.987 91.6771 208.044 91.9118C208.086 92.0878 208.13 92.23 208.176 92.3384C208.226 92.4457 208.266 92.5316 208.296 92.596L206.94 93.269C206.873 93.1706 206.795 93.0293 206.708 92.8451C206.616 92.662 206.533 92.4215 206.461 92.1237C206.352 91.6725 206.341 91.2067 206.43 90.7265C206.52 90.2507 206.729 89.8225 207.057 89.4419C207.387 89.0658 207.854 88.8044 208.458 88.6577L218.801 86.1487Z" fill="black"/>
<path d="M221.482 124.383L221.236 126.092L211.888 124.748C210.923 124.61 210.094 124.258 209.401 123.694C208.712 123.135 208.208 122.413 207.89 121.528C207.576 120.643 207.499 119.647 207.658 118.539C207.817 117.431 208.172 116.497 208.722 115.737C209.277 114.977 209.964 114.424 210.784 114.077C211.607 113.736 212.501 113.634 213.466 113.773L222.814 115.117L222.568 116.827L213.358 115.503C212.669 115.403 212.033 115.467 211.452 115.693C210.875 115.92 210.393 116.291 210.004 116.808C209.619 117.329 209.371 117.983 209.258 118.769C209.145 119.555 209.199 120.252 209.421 120.861C209.648 121.471 210.006 121.963 210.496 122.339C210.991 122.719 211.582 122.959 212.272 123.058L221.482 124.383Z" fill="black"/>
<path d="M210.327 150.301L210.415 148.769C210.678 148.761 210.949 148.71 211.228 148.615C211.509 148.526 211.772 148.361 212.017 148.122C212.263 147.882 212.463 147.537 212.62 147.085C212.834 146.466 212.87 145.901 212.727 145.39C212.588 144.885 212.301 144.557 211.866 144.406C211.48 144.273 211.126 144.308 210.806 144.511C210.485 144.714 210.146 145.089 209.79 145.634L208.902 147.007C208.37 147.835 207.801 148.392 207.196 148.679C206.595 148.967 205.941 148.989 205.235 148.745C204.656 148.544 204.196 148.198 203.855 147.707C203.512 147.22 203.312 146.634 203.254 145.951C203.196 145.268 203.302 144.533 203.574 143.748C203.931 142.716 204.45 141.94 205.132 141.42C205.813 140.899 206.615 140.697 207.537 140.815L207.396 142.417C206.803 142.369 206.303 142.493 205.896 142.79C205.487 143.09 205.172 143.559 204.952 144.195C204.702 144.919 204.656 145.547 204.816 146.079C204.979 146.617 205.277 146.961 205.712 147.111C206.063 147.233 206.399 147.212 206.721 147.048C207.048 146.886 207.358 146.571 207.653 146.103L208.631 144.554C209.171 143.704 209.746 143.142 210.357 142.867C210.971 142.598 211.627 142.584 212.325 142.826C212.895 143.023 213.344 143.358 213.672 143.83C213.999 144.307 214.191 144.867 214.248 145.511C214.304 146.159 214.208 146.839 213.962 147.549C213.616 148.55 213.125 149.259 212.489 149.678C211.851 150.101 211.13 150.308 210.327 150.301Z" fill="black"/>
<path d="M196.818 183.296L186.038 173.955L187.133 172.692L200.687 174.152L200.778 174.047L192.314 166.712L193.445 165.407L204.226 174.748L203.131 176.011L189.537 174.554L189.446 174.66L197.931 182.012L196.818 183.296Z" fill="black"/>
<path d="M172.415 187.375C173.174 186.778 173.983 186.435 174.84 186.346C175.693 186.259 176.536 186.415 177.368 186.812C178.197 187.212 178.952 187.846 179.636 188.715C180.324 189.591 180.767 190.48 180.963 191.383C181.156 192.289 181.11 193.147 180.824 193.956C180.535 194.768 180.011 195.472 179.252 196.069C178.493 196.666 177.687 197.008 176.833 197.094C175.976 197.184 175.132 197.026 174.3 196.623C173.465 196.222 172.703 195.584 172.015 194.708C171.331 193.839 170.895 192.954 170.705 192.051C170.512 191.152 170.56 190.296 170.849 189.484C171.134 188.675 171.656 187.972 172.415 187.375ZM173.328 188.536C172.751 188.989 172.393 189.51 172.253 190.099C172.113 190.687 172.144 191.292 172.344 191.915C172.544 192.537 172.865 193.13 173.307 193.692C173.749 194.254 174.25 194.707 174.811 195.052C175.371 195.397 175.955 195.572 176.563 195.579C177.171 195.585 177.763 195.362 178.339 194.908C178.916 194.455 179.273 193.932 179.41 193.34C179.547 192.748 179.514 192.139 179.311 191.513C179.108 190.887 178.786 190.293 178.343 189.731C177.901 189.169 177.402 188.717 176.844 188.376C176.286 188.035 175.705 187.863 175.1 187.86C174.495 187.857 173.905 188.082 173.328 188.536Z" fill="black"/>
<path d="M156.101 197.781L163.901 205.797L162.365 206.588L156.557 200.367L156.458 200.418L158.18 208.746L156.62 209.55L150.874 203.328L150.775 203.379L152.46 211.695L150.925 212.486L148.92 201.483L150.356 200.743L156.202 206.976L156.351 206.899L154.665 198.522L156.101 197.781Z" fill="black"/>
</svg>
