<svg width="265" height="265" viewBox="0 0 265 265" fill="none" xmlns="http://www.w3.org/2000/svg">
<path d="M127.052 259.254L126.985 260.346L119.363 259.876L119.43 258.784L122.626 258.981L123.185 249.91L124.416 249.986L123.856 259.057L127.052 259.254Z" fill="black"/>
<path d="M112.567 248.596L110.696 258.604L107.314 257.972C106.532 257.826 105.916 257.572 105.464 257.211C105.011 256.853 104.708 256.421 104.553 255.913C104.399 255.405 104.376 254.857 104.487 254.267C104.597 253.677 104.815 253.177 105.142 252.766C105.468 252.355 105.905 252.066 106.452 251.898C106.998 251.734 107.659 251.724 108.435 251.869L111.171 252.381L110.967 253.476L108.269 252.971C107.735 252.871 107.29 252.869 106.935 252.965C106.577 253.06 106.298 253.237 106.098 253.496C105.893 253.758 105.754 254.089 105.679 254.49C105.604 254.891 105.614 255.255 105.707 255.583C105.801 255.91 105.998 256.186 106.296 256.411C106.594 256.639 107.014 256.803 107.554 256.904L109.685 257.302L111.355 248.369L112.567 248.596ZM107.015 252.211L105.393 247.254L106.8 247.518L108.384 252.467L107.015 252.211Z" fill="black"/>
<path d="M90.3702 253.406L89.1953 253.032L91.2389 246.608C91.45 245.944 91.7947 245.402 92.2732 244.98C92.7475 244.561 93.315 244.291 93.9758 244.171C94.6356 244.054 95.3461 244.116 96.1073 244.358C96.8685 244.6 97.4845 244.96 97.9555 245.437C98.4254 245.917 98.7343 246.465 98.8822 247.083C99.0259 247.702 98.9923 248.344 98.7813 249.007L96.7376 255.431L95.5626 255.057L97.5762 248.728C97.7269 248.254 97.7568 247.799 97.6659 247.364C97.574 246.931 97.3691 246.547 97.051 246.213C96.7289 245.881 96.2977 245.629 95.7577 245.457C95.2176 245.286 94.7201 245.242 94.2653 245.327C93.8095 245.415 93.4207 245.61 93.0988 245.911C92.7728 246.214 92.5345 246.602 92.3837 247.076L90.3702 253.406Z" fill="black"/>
<path d="M76.4717 244.838C76.3153 245.321 76.3717 245.777 76.6407 246.208C76.9098 246.638 77.3243 246.982 77.8844 247.239C78.2939 247.428 78.6827 247.526 79.0507 247.535C79.4158 247.543 79.7375 247.47 80.0158 247.317C80.2911 247.163 80.4966 246.938 80.6323 246.643C80.7459 246.396 80.7849 246.157 80.7492 245.925C80.7091 245.695 80.6227 245.478 80.4901 245.275C80.356 245.075 80.2039 244.89 80.0338 244.72C79.8623 244.554 79.7011 244.409 79.5503 244.285L78.7272 243.599C78.5154 243.425 78.2876 243.215 78.0438 242.968C77.797 242.719 77.5824 242.436 77.4 242.119C77.2133 241.803 77.0997 241.455 77.0592 241.075C77.0187 240.695 77.0982 240.289 77.2977 239.855C77.5276 239.355 77.8664 238.964 78.314 238.681C78.7585 238.397 79.2855 238.251 79.8947 238.243C80.501 238.233 81.1594 238.392 81.87 238.719C82.5324 239.024 83.0569 239.395 83.4433 239.831C83.8267 240.267 84.0689 240.74 84.17 241.249C84.2681 241.758 84.2188 242.273 84.0222 242.796L82.866 242.264C82.9966 241.901 83.0121 241.558 82.9127 241.235C82.8088 240.913 82.6244 240.624 82.3595 240.367C82.0902 240.112 81.7719 239.9 81.4046 239.731C80.977 239.534 80.5612 239.427 80.1573 239.409C79.7519 239.394 79.3924 239.465 79.0787 239.624C78.7636 239.785 78.5285 240.035 78.3733 240.372C78.232 240.679 78.2028 240.968 78.2858 241.24C78.3688 241.512 78.5226 241.772 78.7472 242.022C78.9718 242.271 79.2259 242.515 79.5095 242.755L80.4981 243.604C81.1252 244.144 81.5608 244.704 81.805 245.284C82.0493 245.863 82.028 246.464 81.7412 247.088C81.503 247.605 81.1552 247.993 80.6978 248.249C80.2361 248.507 79.7182 248.634 79.1441 248.629C78.5656 248.625 77.9813 248.488 77.3911 248.216C76.7949 247.942 76.3142 247.591 75.9488 247.164C75.5821 246.74 75.3477 246.282 75.2457 245.79C75.1407 245.297 75.1881 244.813 75.3877 244.34L76.4717 244.838Z" fill="black"/>
<path d="M67.4942 241.582L66.9184 242.512L60.4258 238.492L61.0016 237.562L63.7238 239.247L68.508 231.52L69.5563 232.17L64.7721 239.896L67.4942 241.582Z" fill="black"/>
<path d="M59.5495 225.152L53.1663 233.084L48.3789 229.232L49.0646 228.38L52.8914 231.459L55.0482 228.779L51.4693 225.899L52.155 225.047L55.7339 227.927L57.9032 225.231L54.0145 222.102L54.7001 221.25L59.5495 225.152Z" fill="black"/>
<path d="M47.6093 214.416L49.7965 216.672L42.4869 223.76L40.2027 221.404C39.5151 220.695 39.0731 219.947 38.8767 219.158C38.6778 218.373 38.7205 217.581 39.0046 216.784C39.2864 215.989 39.8057 215.224 40.5623 214.491C41.3238 213.752 42.1108 213.252 42.9235 212.991C43.7338 212.731 44.5379 212.718 45.336 212.95C46.1316 213.185 46.8894 213.674 47.6093 214.416ZM48.153 216.548L46.8794 215.235C46.2934 214.631 45.6911 214.243 45.0726 214.072C44.4541 213.9 43.8349 213.926 43.215 214.148C42.5952 214.371 41.9878 214.771 41.3929 215.347C40.8028 215.92 40.3883 216.509 40.1492 217.114C39.9078 217.722 39.8586 218.329 40.0017 218.933C40.1424 219.54 40.4896 220.129 41.0433 220.7L42.4138 222.114L48.153 216.548Z" fill="black"/>
<path d="M32.155 194.85L23.3373 199.941L21.5574 196.858C21.2028 196.244 21.0165 195.676 20.9986 195.154C20.9777 194.634 21.089 194.174 21.3322 193.773C21.5726 193.374 21.908 193.05 22.3386 192.802C22.7175 192.583 23.0693 192.47 23.394 192.462C23.7171 192.452 24.0134 192.514 24.2828 192.649C24.5506 192.782 24.7919 192.954 25.0066 193.167L25.0927 193.118C24.9542 192.838 24.8923 192.512 24.9071 192.14C24.9219 191.768 25.037 191.397 25.2524 191.028C25.4678 190.658 25.808 190.339 26.273 190.071C26.715 189.816 27.1706 189.687 27.6396 189.684C28.1087 189.681 28.5717 189.836 29.0286 190.151C29.4855 190.465 29.9145 190.969 30.3155 191.664L32.155 194.85ZM30.5913 194.329L29.3683 192.211C28.9656 191.513 28.5448 191.096 28.106 190.959C27.6626 190.821 27.2472 190.863 26.8597 191.087C26.5611 191.259 26.3295 191.495 26.1647 191.793C25.9971 192.092 25.9184 192.427 25.9287 192.796C25.9361 193.166 26.0509 193.544 26.2729 193.929L27.5258 196.099L30.5913 194.329ZM26.5958 196.636L25.4523 194.655C25.2667 194.334 25.0362 194.08 24.7607 193.895C24.4836 193.707 24.1863 193.603 23.8689 193.583C23.5498 193.561 23.2352 193.639 22.9252 193.818C22.5377 194.042 22.2869 194.366 22.1729 194.792C22.056 195.219 22.1666 195.726 22.5047 196.311L23.668 198.326L26.5958 196.636Z" fill="black"/>
<path d="M16.2002 186.922L15.6498 185.622L18.9261 181.169L18.8795 181.059L13.4019 180.311L12.8516 179.011L19.7979 180.066L23.6621 178.43L24.1427 179.566L20.2785 181.201L16.2002 186.922Z" fill="black"/>
<path d="M7.90796 146.418L8.09709 147.636C7.75783 147.763 7.46954 147.937 7.23221 148.158C6.99438 148.376 6.80522 148.627 6.66474 148.91C6.52048 149.191 6.42639 149.492 6.38247 149.814C6.33856 150.136 6.34253 150.464 6.39439 150.799C6.48895 151.408 6.72855 151.936 7.11318 152.382C7.49731 152.826 8.01167 153.147 8.65628 153.345C9.30037 153.541 10.058 153.571 10.9292 153.435C11.8004 153.3 12.5133 153.042 13.068 152.661C13.6221 152.276 14.0149 151.814 14.2465 151.275C14.4776 150.733 14.5459 150.157 14.4513 149.548C14.3995 149.214 14.3038 148.9 14.1643 148.606C14.0248 148.313 13.8454 148.054 13.6261 147.83C13.4031 147.603 13.1452 147.421 12.8524 147.286C12.5559 147.147 12.2285 147.069 11.8701 147.051L11.681 145.832C12.2094 145.844 12.6955 145.94 13.1393 146.119C13.583 146.298 13.9753 146.546 14.3162 146.862C14.6538 147.179 14.9311 147.55 15.1481 147.976C15.3646 148.398 15.5123 148.863 15.5911 149.371C15.7243 150.229 15.6331 151.025 15.3176 151.758C15.0021 152.491 14.4876 153.109 13.7742 153.613C13.0607 154.116 12.1734 154.45 11.1123 154.614C10.0511 154.779 9.10429 154.73 8.27187 154.467C7.43945 154.203 6.76177 153.77 6.23883 153.167C5.7159 152.564 5.38783 151.834 5.25463 150.975C5.17582 150.468 5.17554 149.98 5.25378 149.512C5.33152 149.04 5.48489 148.602 5.7139 148.197C5.93964 147.793 6.23676 147.439 6.60526 147.133C6.97049 146.828 7.40472 146.59 7.90796 146.418Z" fill="black"/>
<path d="M14.3165 138.533L4.13953 138.846L4.10156 137.614L13.1853 137.334L13.0396 132.603L14.1328 132.57L14.3165 138.533Z" fill="black"/>
<path d="M4.53954 120.141L14.6779 121.08L14.5642 122.308L4.42578 121.369L4.53954 120.141Z" fill="black"/>
<path d="M16.5633 108.309L6.61719 106.131L7.93178 100.129L9.00021 100.363L7.94938 105.161L11.3101 105.897L12.2928 101.409L13.3612 101.643L12.3785 106.131L15.7586 106.871L16.8265 101.995L17.8949 102.229L16.5633 108.309Z" fill="black"/>
<path d="M12.8084 85.0273L22.4114 88.4112L22.0149 89.5366L12.631 92.1125L12.5979 92.2063L20.1378 94.8633L19.728 96.0261L10.125 92.6422L10.5216 91.5168L19.9308 88.9287L19.9639 88.8349L12.4052 86.1714L12.8084 85.0273Z" fill="black"/>
<path d="M17.3229 77.4913L16.3438 77.0038L19.7477 70.168L20.7267 70.6555L19.2996 73.5215L27.4349 77.5724L26.8853 78.6761L18.75 74.6252L17.3229 77.4913Z" fill="black"/>
<path d="M29.5033 59.4356C29.0504 59.2071 28.5907 59.1928 28.1243 59.3926C27.6579 59.5925 27.2544 59.9494 26.9139 60.4633C26.6649 60.839 26.5078 61.2081 26.4427 61.5705C26.3793 61.9301 26.4018 62.2591 26.5102 62.5575C26.6205 62.8532 26.8109 63.0908 27.0817 63.2702C27.3083 63.4203 27.5387 63.4955 27.7732 63.4958C28.0066 63.4914 28.234 63.4393 28.4553 63.3394C28.6738 63.2377 28.8798 63.1158 29.0734 62.9737C29.2642 62.8297 29.4325 62.6927 29.5782 62.5627L30.3815 61.8545C30.586 61.6719 30.8291 61.4791 31.1107 61.2761C31.3942 61.0703 31.7067 60.9016 32.0483 60.7702C32.389 60.6341 32.7501 60.5751 33.1316 60.5934C33.5131 60.6116 33.9028 60.7525 34.3007 61.0162C34.7593 61.3201 35.0941 61.7149 35.3051 62.2006C35.5179 62.6835 35.5814 63.2266 35.4958 63.8299C35.412 64.4304 35.1541 65.0566 34.722 65.7087C34.3192 66.3165 33.8724 66.7779 33.3815 67.0927C32.8924 67.4048 32.3882 67.5717 31.8689 67.5933C31.3514 67.6123 30.8496 67.4845 30.3635 67.2101L31.0665 66.1491C31.4053 66.3339 31.7419 66.4019 32.0764 66.3531C32.4099 66.2998 32.7239 66.162 33.0184 65.9396C33.3119 65.7126 33.5703 65.4306 33.7937 65.0936C34.0536 64.7012 34.2235 64.3068 34.3033 63.9104C34.3803 63.5122 34.3646 63.1459 34.2561 62.8116C34.1448 62.4755 33.9345 62.2049 33.6251 61.9998C33.3432 61.8131 33.0617 61.7399 32.7806 61.7802C32.4994 61.8205 32.2184 61.9325 31.9376 62.1162C31.6569 62.3 31.3762 62.5136 31.0956 62.757L30.1051 63.6037C29.4751 64.1404 28.8551 64.4851 28.2452 64.6375C27.6352 64.79 27.0443 64.6768 26.4724 64.2978C25.9972 63.9829 25.6678 63.5798 25.4845 63.0885C25.3001 62.5926 25.2545 62.0614 25.3476 61.4949C25.4398 60.9238 25.6653 60.3675 26.0241 59.826C26.3866 59.2789 26.8069 58.8576 27.285 58.5621C27.7603 58.2648 28.2489 58.1035 28.7508 58.0782C29.2544 58.0501 29.725 58.1711 30.1624 58.441L29.5033 59.4356Z" fill="black"/>
<path d="M145.59 5.35109L145.724 4.26562L153.303 5.20405L153.168 6.28951L149.991 5.89606L148.874 14.9152L147.65 14.7637L148.767 5.74453L145.59 5.35109Z" fill="black"/>
<path d="M159.391 16.886L161.875 7.01172L165.211 7.85087C165.982 8.04489 166.583 8.33594 167.011 8.72401C167.441 9.10886 167.717 9.55941 167.84 10.0757C167.963 10.592 167.952 11.141 167.805 11.7228C167.659 12.3045 167.41 12.7905 167.059 13.1807C166.708 13.5709 166.254 13.8327 165.698 13.9661C165.142 14.0964 164.482 14.0653 163.717 13.8729L161.017 13.1938L161.289 12.1138L163.95 12.7832C164.477 12.9158 164.921 12.9453 165.281 12.8719C165.645 12.7993 165.934 12.6397 166.15 12.3932C166.37 12.1444 166.529 11.8222 166.629 11.4269C166.728 11.0315 166.741 10.6674 166.668 10.3345C166.594 10.0015 166.415 9.71392 166.131 9.47155C165.848 9.22597 165.439 9.03608 164.906 8.90188L162.804 8.37317L160.587 17.1868L159.391 16.886ZM165.155 13.6193L166.469 18.6662L165.08 18.317L163.805 13.2798L165.155 13.6193Z" fill="black"/>
<path d="M181.842 13.4489L182.992 13.8943L180.556 20.1806C180.305 20.8296 179.927 21.3498 179.424 21.7412C178.925 22.1307 178.341 22.3651 177.674 22.4444C177.009 22.5206 176.303 22.4144 175.559 22.1259C174.814 21.8373 174.221 21.4407 173.78 20.9358C173.341 20.4279 173.066 19.8613 172.957 19.2359C172.851 18.6086 172.924 17.9704 173.176 17.3214L175.611 11.0352L176.761 11.4806L174.362 17.6741C174.182 18.1377 174.124 18.5898 174.188 19.0304C174.253 19.4679 174.434 19.8633 174.731 20.2164C175.032 20.5676 175.447 20.8456 175.975 21.0504C176.504 21.2551 176.998 21.3291 177.457 21.2724C177.917 21.2126 178.317 21.0424 178.657 20.7617C179.001 20.4791 179.263 20.106 179.442 19.6424L181.842 13.4489Z" fill="black"/>
<path d="M195.189 22.8555C195.375 22.3834 195.347 21.9244 195.104 21.4784C194.862 21.0324 194.47 20.6636 193.927 20.3719C193.53 20.1587 193.148 20.0363 192.781 20.0049C192.417 19.975 192.091 20.0278 191.804 20.1632C191.52 20.3003 191.301 20.5119 191.147 20.798C191.019 21.0375 190.965 21.2739 190.986 21.5073C191.012 21.7394 191.085 21.961 191.205 22.1721C191.327 22.3803 191.467 22.5742 191.626 22.7538C191.787 22.9305 191.939 23.0855 192.082 23.2186L192.861 23.9531C193.062 24.1399 193.276 24.3641 193.505 24.6258C193.736 24.8891 193.932 25.1848 194.095 25.5128C194.262 25.8394 194.354 26.1935 194.371 26.5751C194.388 26.9567 194.284 27.3578 194.058 27.7782C193.797 28.263 193.435 28.6328 192.971 28.8876C192.51 29.1441 191.975 29.2575 191.366 29.2279C190.761 29.1998 190.113 29.0008 189.424 28.6307C188.782 28.2858 188.281 27.8834 187.922 27.4236C187.566 26.9654 187.354 26.4788 187.284 25.9637C187.218 25.4501 187.299 24.9387 187.527 24.4293L188.648 25.0314C188.496 25.3858 188.459 25.7273 188.538 26.0558C188.622 26.383 188.788 26.683 189.037 26.9557C189.29 27.227 189.595 27.4583 189.951 27.6496C190.366 27.8723 190.774 28.005 191.176 28.0479C191.58 28.0878 191.943 28.0384 192.266 27.8995C192.59 27.7577 192.84 27.5233 193.016 27.1962C193.176 26.8984 193.223 26.6113 193.157 26.3351C193.091 26.0588 192.953 25.7894 192.744 25.5268C192.536 25.2641 192.297 25.0043 192.029 24.7474L191.094 23.8393C190.502 23.2615 190.101 22.676 189.893 22.0827C189.685 21.4894 189.743 20.8905 190.068 20.2861C190.338 19.7839 190.709 19.4188 191.181 19.1908C191.658 18.9615 192.182 18.8671 192.755 18.9075C193.332 18.9466 193.907 19.1198 194.479 19.4271C195.057 19.7376 195.516 20.1172 195.854 20.566C196.194 21.0119 196.4 21.4835 196.471 21.9809C196.546 22.4798 196.469 22.9595 196.24 23.42L195.189 22.8555Z" fill="black"/>
<path d="M203.947 26.6583L204.579 25.7656L210.812 30.1777L210.18 31.0704L207.566 29.2205L202.316 36.6382L201.309 35.9258L206.56 28.5082L203.947 26.6583Z" fill="black"/>
<path d="M210.867 43.5479L217.727 36.0234L222.268 40.1632L221.531 40.9715L217.901 37.6623L215.583 40.2048L218.978 43.2996L218.241 44.1079L214.846 41.0131L212.515 43.5702L216.204 46.933L215.467 47.7412L210.867 43.5479Z" fill="black"/>
<path d="M222.122 54.9989L220.078 52.6128L227.81 45.9883L229.945 48.4801C230.587 49.2302 230.982 50.0046 231.13 50.8035C231.28 51.6001 231.189 52.3876 230.856 53.1658C230.526 53.9419 229.96 54.6728 229.16 55.3586C228.355 56.0486 227.538 56.4992 226.711 56.7104C225.886 56.9195 225.083 56.8833 224.301 56.602C223.521 56.3186 222.795 55.7842 222.122 54.9989ZM221.71 52.8375L222.901 54.2269C223.448 54.8662 224.026 55.2903 224.632 55.4993C225.239 55.7083 225.859 55.7209 226.491 55.537C227.124 55.3531 227.754 54.9915 228.384 54.4524C229.008 53.9177 229.458 53.3553 229.734 52.7655C230.012 52.1734 230.099 51.5713 229.993 50.959C229.89 50.3446 229.58 49.7354 229.062 49.1313L227.781 47.6363L221.71 52.8375Z" fill="black"/>
<path d="M236.34 75.4798L245.455 70.9414L247.041 74.1279C247.358 74.7628 247.509 75.3411 247.494 75.8628C247.483 76.3831 247.344 76.8357 247.076 77.2206C246.812 77.6041 246.457 77.9066 246.012 78.1282C245.62 78.3232 245.262 78.4145 244.938 78.4022C244.615 78.3927 244.323 78.3122 244.062 78.1606C243.803 78.0119 243.573 77.8248 243.372 77.5992L243.283 77.6435C243.404 77.9312 243.445 78.2604 243.408 78.6309C243.37 79.0014 243.232 79.3643 242.995 79.7196C242.757 80.075 242.398 80.3723 241.917 80.6116C241.46 80.8392 240.998 80.9399 240.529 80.914C240.061 80.888 239.608 80.7042 239.172 80.3626C238.735 80.0209 238.338 79.4911 237.98 78.7731L236.34 75.4798ZM237.869 76.096L238.959 78.2856C239.318 79.0065 239.713 79.4489 240.142 79.6127C240.576 79.7779 240.994 79.7608 241.394 79.5614C241.703 79.4077 241.948 79.1873 242.131 78.9C242.317 78.6113 242.416 78.2824 242.428 77.9133C242.444 77.5428 242.353 77.1587 242.155 76.7612L241.038 74.5182L237.869 76.096ZM241.999 74.0395L243.018 76.0867C243.184 76.419 243.398 76.6861 243.662 76.8882C243.927 77.0931 244.217 77.2152 244.533 77.2542C244.85 77.2963 245.169 77.2375 245.489 77.0779C245.89 76.8785 246.16 76.5699 246.3 76.1521C246.443 75.7329 246.364 75.2206 246.062 74.6154L245.025 72.5326L241.999 74.0395Z" fill="black"/>
<path d="M251.778 84.375L252.247 85.7067L248.703 89.9497L248.743 90.0622L254.164 91.1459L254.633 92.4776L247.765 90.9972L243.808 92.3917L243.398 91.2289L247.355 89.8343L251.778 84.375Z" fill="black"/>
<path d="M257.564 125.308L257.45 124.08C257.797 123.975 258.095 123.819 258.346 123.613C258.596 123.41 258.801 123.171 258.958 122.897C259.119 122.626 259.232 122.331 259.296 122.012C259.359 121.693 259.375 121.365 259.344 121.029C259.287 120.415 259.08 119.873 258.723 119.404C258.367 118.937 257.875 118.585 257.243 118.348C256.613 118.113 255.858 118.037 254.98 118.118C254.103 118.199 253.375 118.413 252.798 118.759C252.221 119.109 251.801 119.546 251.536 120.07C251.272 120.597 251.169 121.167 251.226 121.781C251.257 122.118 251.333 122.437 251.454 122.739C251.575 123.04 251.738 123.31 251.944 123.547C252.152 123.787 252.398 123.984 252.682 124.138C252.97 124.294 253.292 124.392 253.648 124.433L253.762 125.66C253.235 125.616 252.756 125.49 252.324 125.284C251.892 125.078 251.516 124.807 251.195 124.47C250.878 124.133 250.624 123.746 250.433 123.307C250.243 122.872 250.125 122.399 250.077 121.888C249.997 121.023 250.137 120.234 250.497 119.522C250.857 118.81 251.409 118.224 252.152 117.766C252.895 117.308 253.801 117.029 254.87 116.93C255.94 116.831 256.882 116.938 257.696 117.252C258.511 117.566 259.161 118.04 259.645 118.674C260.13 119.308 260.413 120.058 260.493 120.922C260.54 121.434 260.51 121.921 260.404 122.384C260.297 122.849 260.117 123.277 259.863 123.667C259.613 124.056 259.295 124.392 258.908 124.674C258.525 124.956 258.077 125.167 257.564 125.308Z" fill="black"/>
<path d="M250.68 132.785L260.857 133.098L260.819 134.331L251.735 134.051L251.589 138.782L250.496 138.748L250.68 132.785Z" fill="black"/>
<path d="M259.303 151.745L249.242 150.184L249.431 148.965L259.493 150.527L259.303 151.745Z" fill="black"/>
<path d="M246.578 162.812L256.372 165.6L254.69 171.51L253.638 171.211L254.982 166.486L251.673 165.545L250.416 169.963L249.364 169.663L250.621 165.245L247.293 164.299L245.927 169.099L244.875 168.799L246.578 162.812Z" fill="black"/>
<path d="M248.889 186.283L239.512 182.314L239.977 181.215L249.502 179.222L249.541 179.13L242.179 176.014L242.659 174.879L252.036 178.847L251.571 179.946L242.02 181.95L241.981 182.042L249.362 185.165L248.889 186.283Z" fill="black"/>
<path d="M243.92 193.526L244.867 194.073L241.049 200.686L240.102 200.139L241.703 197.366L233.832 192.822L234.449 191.754L242.319 196.298L243.92 193.526Z" fill="black"/>
<path d="M230.652 210.8C231.09 211.056 231.548 211.098 232.025 210.928C232.503 210.757 232.928 210.425 233.299 209.933C233.571 209.574 233.751 209.215 233.838 208.857C233.923 208.502 233.921 208.173 233.831 207.868C233.739 207.566 233.564 207.317 233.305 207.122C233.088 206.958 232.862 206.869 232.628 206.854C232.395 206.844 232.165 206.882 231.938 206.968C231.714 207.056 231.501 207.165 231.299 207.295C231.099 207.427 230.923 207.553 230.769 207.674L229.924 208.331C229.709 208.501 229.454 208.679 229.161 208.864C228.865 209.052 228.543 209.201 228.194 209.311C227.845 209.426 227.481 209.463 227.102 209.421C226.722 209.379 226.342 209.215 225.961 208.927C225.522 208.595 225.212 208.181 225.031 207.683C224.848 207.188 224.818 206.642 224.941 206.045C225.062 205.451 225.358 204.842 225.829 204.217C226.268 203.635 226.743 203.202 227.252 202.918C227.76 202.637 228.273 202.502 228.793 202.512C229.31 202.525 229.803 202.683 230.272 202.987L229.505 204.003C229.178 203.798 228.846 203.709 228.509 203.737C228.173 203.77 227.851 203.888 227.544 204.092C227.237 204.3 226.961 204.566 226.718 204.888C226.434 205.264 226.24 205.647 226.136 206.038C226.035 206.431 226.028 206.797 226.116 207.138C226.206 207.48 226.399 207.763 226.696 207.987C226.965 208.19 227.242 208.281 227.525 208.258C227.808 208.235 228.095 208.14 228.387 207.974C228.679 207.808 228.972 207.612 229.267 207.387L230.308 206.603C230.969 206.106 231.609 205.8 232.228 205.685C232.846 205.571 233.429 205.72 233.976 206.133C234.431 206.477 234.735 206.9 234.888 207.401C235.041 207.907 235.054 208.44 234.926 209C234.799 209.565 234.54 210.106 234.148 210.624C233.753 211.148 233.307 211.543 232.812 211.808C232.319 212.076 231.822 212.207 231.319 212.201C230.815 212.198 230.353 212.048 229.933 211.752L230.652 210.8Z" fill="black"/>
</svg>
