<svg width="265" height="265" viewBox="0 0 265 265" fill="none" xmlns="http://www.w3.org/2000/svg">
<path d="M127.054 259.255L126.987 260.347L119.365 259.877L119.432 258.785L122.628 258.982L123.187 249.911L124.418 249.987L123.858 259.058L127.054 259.255Z" fill="black"/>
<path d="M112.568 248.595L110.697 258.603L107.315 257.971C106.533 257.825 105.917 257.571 105.465 257.21C105.012 256.852 104.709 256.42 104.554 255.912C104.4 255.404 104.377 254.856 104.488 254.266C104.598 253.676 104.816 253.176 105.143 252.765C105.469 252.354 105.906 252.065 106.453 251.897C106.999 251.733 107.66 251.723 108.436 251.868L111.172 252.38L110.968 253.475L108.27 252.97C107.736 252.87 107.291 252.868 106.936 252.964C106.578 253.059 106.299 253.236 106.099 253.495C105.894 253.757 105.755 254.088 105.68 254.489C105.605 254.89 105.615 255.254 105.708 255.582C105.802 255.909 105.999 256.185 106.297 256.41C106.595 256.638 107.015 256.802 107.555 256.903L109.686 257.301L111.356 248.368L112.568 248.595ZM107.016 252.21L105.394 247.253L106.801 247.517L108.385 252.466L107.016 252.21Z" fill="black"/>
<path d="M90.3713 253.406L89.1964 253.032L91.24 246.608C91.4511 245.944 91.7958 245.402 92.2743 244.98C92.7486 244.561 93.3161 244.291 93.9769 244.171C94.6367 244.054 95.3472 244.116 96.1084 244.358C96.8696 244.6 97.4856 244.96 97.9566 245.437C98.4265 245.917 98.7354 246.465 98.8833 247.083C99.027 247.702 98.9934 248.344 98.7824 249.007L96.7387 255.431L95.5637 255.057L97.5773 248.728C97.728 248.254 97.7579 247.799 97.667 247.364C97.5751 246.931 97.3702 246.547 97.0521 246.213C96.73 245.881 96.2988 245.629 95.7588 245.457C95.2187 245.286 94.7212 245.242 94.2664 245.327C93.8106 245.415 93.4218 245.61 93.0999 245.911C92.7739 246.214 92.5356 246.602 92.3848 247.076L90.3713 253.406Z" fill="black"/>
<path d="M76.4698 244.838C76.3134 245.321 76.3698 245.777 76.6388 246.208C76.9079 246.638 77.3224 246.982 77.8825 247.239C78.292 247.428 78.6808 247.526 79.0488 247.535C79.4139 247.543 79.7356 247.47 80.0139 247.317C80.2892 247.163 80.4947 246.938 80.6304 246.643C80.744 246.396 80.783 246.157 80.7473 245.925C80.7072 245.695 80.6208 245.478 80.4882 245.275C80.3541 245.075 80.202 244.89 80.0319 244.72C79.8604 244.554 79.6992 244.409 79.5484 244.285L78.7253 243.599C78.5135 243.425 78.2857 243.215 78.0419 242.968C77.7951 242.719 77.5805 242.436 77.3981 242.119C77.2114 241.803 77.0978 241.455 77.0573 241.075C77.0168 240.695 77.0963 240.289 77.2958 239.855C77.5257 239.355 77.8645 238.964 78.3121 238.681C78.7566 238.397 79.2836 238.251 79.8928 238.243C80.4991 238.233 81.1575 238.392 81.8681 238.719C82.5305 239.024 83.055 239.395 83.4414 239.831C83.8248 240.267 84.067 240.74 84.1681 241.249C84.2662 241.758 84.2169 242.273 84.0203 242.796L82.8641 242.264C82.9947 241.901 83.0102 241.558 82.9108 241.235C82.8069 240.913 82.6225 240.624 82.3576 240.367C82.0883 240.112 81.77 239.9 81.4027 239.731C80.9751 239.534 80.5593 239.427 80.1554 239.409C79.75 239.394 79.3905 239.465 79.0768 239.624C78.7617 239.785 78.5266 240.035 78.3714 240.372C78.2301 240.679 78.2009 240.968 78.2839 241.24C78.3669 241.512 78.5207 241.772 78.7453 242.022C78.9699 242.271 79.224 242.515 79.5076 242.755L80.4962 243.604C81.1233 244.144 81.5589 244.704 81.8031 245.284C82.0474 245.863 82.0261 246.464 81.7393 247.088C81.5011 247.605 81.1533 247.993 80.6959 248.249C80.2342 248.507 79.7163 248.634 79.1422 248.629C78.5637 248.625 77.9794 248.488 77.3892 248.216C76.793 247.942 76.3123 247.591 75.9469 247.164C75.5802 246.74 75.3458 246.282 75.2438 245.79C75.1388 245.297 75.1862 244.813 75.3858 244.34L76.4698 244.838Z" fill="black"/>
<path d="M67.4959 241.582L66.9201 242.512L60.4275 238.492L61.0033 237.562L63.7255 239.247L68.5097 231.52L69.558 232.17L64.7738 239.896L67.4959 241.582Z" fill="black"/>
<path d="M59.5479 225.152L53.1647 233.084L48.3773 229.232L49.063 228.38L52.8898 231.459L55.0466 228.779L51.4677 225.899L52.1534 225.047L55.7323 227.927L57.9016 225.231L54.0129 222.102L54.6985 221.25L59.5479 225.152Z" fill="black"/>
<path d="M47.6103 214.414L49.7975 216.67L42.4879 223.758L40.2037 221.402C39.5161 220.693 39.0741 219.945 38.8777 219.156C38.6788 218.371 38.7215 217.579 39.0056 216.782C39.2874 215.987 39.8067 215.222 40.5633 214.489C41.3248 213.75 42.1118 213.25 42.9245 212.989C43.7348 212.729 44.5389 212.716 45.337 212.948C46.1326 213.183 46.8904 213.672 47.6103 214.414ZM48.154 216.546L46.8804 215.233C46.2944 214.629 45.6921 214.241 45.0736 214.07C44.4551 213.898 43.8359 213.924 43.216 214.146C42.5962 214.369 41.9888 214.769 41.3939 215.345C40.8038 215.918 40.3893 216.507 40.1502 217.112C39.9088 217.72 39.8596 218.327 40.0027 218.931C40.1434 219.538 40.4906 220.127 41.0443 220.698L42.4148 222.112L48.154 216.546Z" fill="black"/>
<path d="M32.1556 194.848L23.3379 199.939L21.558 196.856C21.2034 196.242 21.0171 195.674 20.9992 195.152C20.9783 194.632 21.0896 194.172 21.3328 193.771C21.5732 193.372 21.9086 193.048 22.3392 192.8C22.7181 192.581 23.0699 192.468 23.3946 192.46C23.7177 192.45 24.014 192.512 24.2834 192.647C24.5512 192.78 24.7925 192.952 25.0072 193.165L25.0933 193.116C24.9548 192.836 24.8929 192.51 24.9077 192.138C24.9225 191.766 25.0376 191.395 25.253 191.026C25.4684 190.656 25.8086 190.337 26.2736 190.069C26.7156 189.814 27.1712 189.685 27.6402 189.682C28.1093 189.679 28.5723 189.834 29.0292 190.149C29.4861 190.463 29.9151 190.967 30.3161 191.662L32.1556 194.848ZM30.5919 194.327L29.3689 192.209C28.9662 191.511 28.5454 191.094 28.1066 190.957C27.6632 190.819 27.2478 190.861 26.8603 191.085C26.5617 191.257 26.3301 191.493 26.1653 191.791C25.9977 192.09 25.919 192.425 25.9293 192.794C25.9367 193.164 26.0515 193.542 26.2735 193.927L27.5264 196.097L30.5919 194.327ZM26.5964 196.634L25.4529 194.653C25.2673 194.332 25.0368 194.078 24.7613 193.893C24.4842 193.705 24.1869 193.601 23.8695 193.581C23.5504 193.559 23.2358 193.637 22.9258 193.816C22.5383 194.04 22.2875 194.364 22.1735 194.79C22.0566 195.217 22.1672 195.724 22.5053 196.309L23.6686 198.324L26.5964 196.634Z" fill="black"/>
<path d="M16.1986 186.92L15.6482 185.62L18.9245 181.167L18.8779 181.057L13.4003 180.309L12.85 179.009L19.7963 180.064L23.6605 178.428L24.1411 179.564L20.2769 181.199L16.1986 186.92Z" fill="black"/>
<path d="M7.90709 146.418L8.09622 147.636C7.75696 147.763 7.46867 147.937 7.23134 148.158C6.99351 148.376 6.80435 148.627 6.66387 148.91C6.51961 149.191 6.42552 149.492 6.3816 149.814C6.33769 150.136 6.34166 150.464 6.39352 150.799C6.48808 151.408 6.72768 151.936 7.11231 152.382C7.49644 152.826 8.0108 153.147 8.65541 153.345C9.2995 153.541 10.0571 153.571 10.9283 153.435C11.7995 153.3 12.5124 153.042 13.0671 152.661C13.6212 152.276 14.014 151.814 14.2456 151.275C14.4767 150.733 14.545 150.157 14.4504 149.548C14.3986 149.214 14.3029 148.9 14.1634 148.606C14.0239 148.313 13.8445 148.054 13.6252 147.83C13.4022 147.603 13.1443 147.421 12.8515 147.286C12.555 147.147 12.2276 147.069 11.8692 147.051L11.6801 145.832C12.2085 145.844 12.6946 145.94 13.1384 146.119C13.5821 146.298 13.9744 146.546 14.3153 146.862C14.6529 147.179 14.9302 147.55 15.1472 147.976C15.3637 148.398 15.5114 148.863 15.5902 149.371C15.7234 150.229 15.6322 151.025 15.3167 151.758C15.0012 152.491 14.4867 153.109 13.7733 153.613C13.0598 154.116 12.1725 154.45 11.1114 154.614C10.0502 154.779 9.10342 154.73 8.271 154.467C7.43858 154.203 6.7609 153.77 6.23796 153.167C5.71503 152.564 5.38696 151.834 5.25376 150.975C5.17495 150.468 5.17467 149.98 5.25291 149.512C5.33065 149.04 5.48402 148.602 5.71303 148.197C5.93877 147.793 6.23589 147.439 6.60439 147.133C6.96962 146.828 7.40385 146.59 7.90709 146.418Z" fill="black"/>
<path d="M14.3167 138.535L4.13976 138.848L4.10179 137.616L13.1855 137.336L13.0398 132.605L14.133 132.572L14.3167 138.535Z" fill="black"/>
<path d="M4.54034 120.142L14.6787 121.081L14.565 122.309L4.42658 121.37L4.54034 120.142Z" fill="black"/>
<path d="M16.5623 108.308L6.61618 106.13L7.93077 100.128L8.9992 100.362L7.94837 105.16L11.3091 105.896L12.2918 101.408L13.3602 101.642L12.3775 106.13L15.7576 106.87L16.8255 101.994L17.8939 102.228L16.5623 108.308Z" fill="black"/>
<path d="M12.8094 85.0261L22.4124 88.41L22.0159 89.5354L12.632 92.1113L12.5989 92.2051L20.1388 94.8621L19.729 96.0249L10.126 92.641L10.5226 91.5156L19.9318 88.9275L19.9649 88.8337L12.4062 86.1702L12.8094 85.0261Z" fill="black"/>
<path d="M17.3236 77.4907L16.3445 77.0032L19.7484 70.1674L20.7274 70.6549L19.3003 73.5209L27.4356 77.5718L26.886 78.6755L18.7507 74.6246L17.3236 77.4907Z" fill="black"/>
<path d="M29.505 59.4345C29.0521 59.206 28.5924 59.1917 28.126 59.3915C27.6596 59.5914 27.2561 59.9483 26.9156 60.4622C26.6666 60.8379 26.5095 61.207 26.4444 61.5694C26.381 61.929 26.4035 62.258 26.5119 62.5564C26.6222 62.8521 26.8126 63.0897 27.0834 63.2691C27.31 63.4192 27.5404 63.4944 27.7749 63.4947C28.0083 63.4903 28.2357 63.4382 28.457 63.3383C28.6755 63.2366 28.8815 63.1147 29.0751 62.9726C29.2659 62.8286 29.4342 62.6916 29.5799 62.5616L30.3832 61.8534C30.5877 61.6708 30.8308 61.478 31.1124 61.275C31.3959 61.0692 31.7084 60.9005 32.05 60.7691C32.3907 60.633 32.7518 60.574 33.1333 60.5923C33.5148 60.6105 33.9045 60.7514 34.3024 61.0151C34.761 61.319 35.0958 61.7138 35.3068 62.1995C35.5196 62.6824 35.5831 63.2255 35.4975 63.8288C35.4137 64.4293 35.1558 65.0555 34.7237 65.7076C34.3209 66.3154 33.8741 66.7768 33.3832 67.0916C32.8941 67.4037 32.3899 67.5706 31.8706 67.5922C31.3531 67.6112 30.8513 67.4834 30.3652 67.209L31.0682 66.148C31.407 66.3328 31.7436 66.4008 32.0781 66.352C32.4116 66.2987 32.7256 66.1609 33.0201 65.9385C33.3136 65.7115 33.572 65.4295 33.7954 65.0925C34.0553 64.7001 34.2252 64.3057 34.305 63.9093C34.382 63.5111 34.3663 63.1448 34.2578 62.8105C34.1465 62.4744 33.9362 62.2038 33.6268 61.9987C33.3449 61.812 33.0634 61.7388 32.7823 61.7791C32.5011 61.8194 32.2201 61.9314 31.9393 62.1151C31.6586 62.2989 31.3779 62.5125 31.0973 62.7559L30.1068 63.6026C29.4768 64.1393 28.8568 64.484 28.2469 64.6364C27.6369 64.7889 27.046 64.6757 26.4741 64.2967C25.9989 63.9818 25.6695 63.5787 25.4862 63.0874C25.3018 62.5915 25.2562 62.0603 25.3493 61.4938C25.4415 60.9227 25.667 60.3664 26.0258 59.8249C26.3883 59.2778 26.8086 58.8565 27.2867 58.561C27.762 58.2637 28.2506 58.1024 28.7525 58.0771C29.2561 58.049 29.7267 58.17 30.1641 58.4399L29.505 59.4345Z" fill="black"/>
<path d="M53.7774 36.8172C54.5009 37.6108 54.9828 38.4272 55.2232 39.2665C55.4636 40.1058 55.4768 40.91 55.263 41.679C55.0491 42.4481 54.6213 43.1251 53.9796 43.7101C53.3379 44.2951 52.6242 44.6586 51.8388 44.8006C51.0533 44.9426 50.2538 44.8552 49.4402 44.5384C48.6267 44.2216 47.8582 43.6664 47.1347 42.8728C46.4113 42.0792 45.9294 41.2628 45.689 40.4235C45.4486 39.5842 45.4353 38.78 45.6492 38.011C45.863 37.2419 46.2908 36.5649 46.9326 35.9799C47.5743 35.3949 48.2879 35.0314 49.0734 34.8894C49.8589 34.7474 50.6584 34.8348 51.4719 35.1516C52.2855 35.4684 53.054 36.0236 53.7774 36.8172ZM52.8957 37.621C52.3017 36.9695 51.6914 36.519 51.0648 36.2695C50.4406 36.0177 49.8387 35.9453 49.2589 36.0523C48.6816 36.1569 48.1652 36.417 47.7096 36.8323C47.254 37.2476 46.9463 37.739 46.7863 38.3064C46.6288 38.8715 46.6454 39.4776 46.836 40.1246C47.0291 40.7693 47.4226 41.4174 48.0165 42.069C48.6105 42.7205 49.2195 43.1721 49.8437 43.4239C50.4703 43.6734 51.0723 43.7458 51.6496 43.6411C52.2293 43.5342 52.747 43.273 53.2025 42.8577C53.6581 42.4424 53.9647 41.9522 54.1222 41.387C54.2821 40.8196 54.2656 40.2135 54.0725 39.5688C53.8819 38.9218 53.4896 38.2726 52.8957 37.621Z" fill="black"/>
<path d="M61.9432 24.5616L67.826 32.872L66.8521 33.5614L57.7047 30.2421L57.6235 30.2995L62.2424 36.8245L61.2361 37.5368L55.3533 29.2265L56.3272 28.5371L65.5023 31.8611L65.5835 31.8036L60.9531 25.2625L61.9432 24.5616Z" fill="black"/>
<path d="M73.938 29.2104L69.121 20.2401L70.2073 19.6568L74.5068 27.6635L78.6766 25.4243L79.194 26.3879L73.938 29.2104Z" fill="black"/>
<path d="M81.1117 14.1717L82.4283 13.6616L86.7784 17.0734L86.8896 17.0303L87.8059 11.5783L89.1224 11.0683L87.8542 17.9789L89.37 21.8916L88.2203 22.337L86.7045 18.4243L81.1117 14.1717Z" fill="black"/>
<path d="M120.6 9.39035L120.735 10.4758L116.314 11.0232L116.179 9.93777L120.6 9.39035Z" fill="black"/>
<path d="M145.588 5.35189L145.722 4.26643L153.301 5.20485L153.166 6.29031L149.989 5.89686L148.872 14.916L147.648 14.7645L148.765 5.74534L145.588 5.35189Z" fill="black"/>
<path d="M159.39 16.8841L161.874 7.00985L165.21 7.849C165.981 8.04302 166.582 8.33407 167.01 8.72214C167.44 9.10699 167.716 9.55754 167.839 10.0738C167.962 10.5901 167.951 11.1391 167.804 11.7209C167.658 12.3026 167.409 12.7886 167.058 13.1788C166.707 13.569 166.253 13.8308 165.697 13.9642C165.141 14.0945 164.481 14.0634 163.716 13.871L161.016 13.1919L161.288 12.1119L163.949 12.7813C164.476 12.9139 164.92 12.9434 165.28 12.87C165.644 12.7974 165.933 12.6378 166.149 12.3913C166.369 12.1425 166.528 11.8203 166.628 11.425C166.727 11.0296 166.74 10.6655 166.667 10.3326C166.593 9.99968 166.414 9.71205 166.13 9.46968C165.847 9.2241 165.438 9.03421 164.905 8.90001L162.803 8.3713L160.586 17.1849L159.39 16.8841ZM165.154 13.6174L166.468 18.6643L165.079 18.3151L163.804 13.2779L165.154 13.6174Z" fill="black"/>
<path d="M181.841 13.4486L182.991 13.894L180.555 20.1803C180.304 20.8293 179.926 21.3495 179.423 21.7409C178.924 22.1304 178.34 22.3648 177.673 22.4441C177.008 22.5203 176.302 22.4141 175.558 22.1256C174.813 21.837 174.22 21.4404 173.779 20.9355C173.34 20.4276 173.065 19.861 172.956 19.2356C172.85 18.6083 172.923 17.9701 173.175 17.3211L175.61 11.0349L176.76 11.4803L174.361 17.6738C174.181 18.1374 174.123 18.5895 174.187 19.0301C174.252 19.4676 174.433 19.863 174.73 20.2161C175.031 20.5673 175.446 20.8453 175.974 21.0501C176.503 21.2548 176.997 21.3288 177.456 21.2721C177.916 21.2123 178.316 21.0421 178.656 20.7614C179 20.4788 179.262 20.1057 179.441 19.6421L181.841 13.4486Z" fill="black"/>
<path d="M195.189 22.8556C195.375 22.3835 195.347 21.9245 195.104 21.4785C194.862 21.0325 194.47 20.6637 193.927 20.372C193.53 20.1588 193.148 20.0364 192.781 20.005C192.417 19.9751 192.091 20.0279 191.804 20.1633C191.52 20.3004 191.301 20.512 191.147 20.7981C191.019 21.0376 190.965 21.274 190.986 21.5074C191.012 21.7395 191.085 21.9611 191.205 22.1722C191.327 22.3804 191.467 22.5743 191.626 22.7539C191.787 22.9306 191.939 23.0856 192.082 23.2187L192.861 23.9532C193.062 24.14 193.276 24.3642 193.505 24.6259C193.736 24.8892 193.932 25.1849 194.095 25.5129C194.262 25.8395 194.354 26.1936 194.371 26.5752C194.388 26.9568 194.284 27.3579 194.058 27.7783C193.797 28.2631 193.435 28.6329 192.971 28.8877C192.51 29.1442 191.975 29.2576 191.366 29.228C190.761 29.1999 190.113 29.0009 189.424 28.6308C188.782 28.2859 188.281 27.8835 187.922 27.4237C187.566 26.9655 187.354 26.4789 187.284 25.9638C187.218 25.4502 187.299 24.9388 187.527 24.4294L188.648 25.0315C188.496 25.3859 188.459 25.7274 188.538 26.0559C188.622 26.3831 188.788 26.6831 189.037 26.9558C189.29 27.2271 189.595 27.4584 189.951 27.6497C190.366 27.8724 190.774 28.0051 191.176 28.048C191.58 28.0879 191.943 28.0385 192.266 27.8996C192.59 27.7578 192.84 27.5234 193.016 27.1963C193.176 26.8985 193.223 26.6114 193.157 26.3352C193.091 26.0589 192.953 25.7895 192.744 25.5269C192.536 25.2642 192.297 25.0044 192.029 24.7475L191.094 23.8394C190.502 23.2616 190.101 22.6761 189.893 22.0828C189.685 21.4895 189.743 20.8906 190.068 20.2862C190.338 19.784 190.709 19.4189 191.181 19.1909C191.658 18.9616 192.182 18.8672 192.755 18.9076C193.332 18.9467 193.907 19.1199 194.479 19.4272C195.057 19.7377 195.516 20.1173 195.854 20.5661C196.194 21.012 196.4 21.4836 196.471 21.981C196.546 22.4799 196.469 22.9596 196.24 23.4201L195.189 22.8556Z" fill="black"/>
<path d="M203.945 26.6582L204.577 25.7655L210.81 30.1776L210.178 31.0703L207.564 29.2204L202.314 36.6381L201.307 35.9257L206.558 28.5081L203.945 26.6582Z" fill="black"/>
<path d="M210.866 43.5462L217.726 36.0217L222.267 40.1615L221.53 40.9698L217.9 37.6606L215.582 40.2031L218.977 43.2979L218.24 44.1062L214.845 41.0114L212.514 43.5685L216.203 46.9313L215.466 47.7395L210.866 43.5462Z" fill="black"/>
<path d="M222.121 54.9983L220.077 52.6122L227.809 45.9877L229.944 48.4795C230.586 49.2296 230.981 50.004 231.129 50.8029C231.279 51.5995 231.188 52.387 230.855 53.1652C230.525 53.9413 229.959 54.6722 229.159 55.358C228.354 56.048 227.537 56.4986 226.71 56.7098C225.885 56.9189 225.082 56.8827 224.3 56.6014C223.52 56.318 222.794 55.7836 222.121 54.9983ZM221.709 52.8369L222.9 54.2263C223.447 54.8656 224.025 55.2897 224.631 55.4987C225.238 55.7077 225.858 55.7203 226.49 55.5364C227.123 55.3525 227.753 54.9909 228.383 54.4518C229.007 53.9171 229.457 53.3547 229.733 52.7649C230.011 52.1728 230.098 51.5707 229.992 50.9584C229.889 50.344 229.579 49.7348 229.061 49.1307L227.78 47.6357L221.709 52.8369Z" fill="black"/>
<path d="M236.341 75.4792L245.456 70.9408L247.042 74.1273C247.359 74.7622 247.51 75.3405 247.495 75.8622C247.484 76.3825 247.345 76.8351 247.077 77.22C246.813 77.6035 246.458 77.906 246.013 78.1276C245.621 78.3226 245.263 78.4139 244.939 78.4016C244.616 78.3921 244.324 78.3116 244.063 78.16C243.804 78.0113 243.574 77.8242 243.373 77.5986L243.284 77.6429C243.405 77.9306 243.446 78.2598 243.409 78.6303C243.371 79.0008 243.233 79.3637 242.996 79.719C242.758 80.0744 242.399 80.3717 241.918 80.611C241.461 80.8386 240.999 80.9393 240.53 80.9134C240.062 80.8874 239.609 80.7036 239.173 80.362C238.736 80.0203 238.339 79.4905 237.981 78.7725L236.341 75.4792ZM237.87 76.0954L238.96 78.285C239.319 79.0059 239.714 79.4483 240.143 79.6121C240.577 79.7773 240.995 79.7602 241.395 79.5608C241.704 79.4071 241.949 79.1867 242.132 78.8994C242.318 78.6107 242.417 78.2818 242.429 77.9127C242.445 77.5422 242.354 77.1581 242.156 76.7606L241.039 74.5176L237.87 76.0954ZM242 74.0389L243.019 76.0861C243.185 76.4184 243.399 76.6855 243.663 76.8876C243.928 77.0925 244.218 77.2146 244.534 77.2536C244.851 77.2957 245.17 77.2369 245.49 77.0773C245.891 76.8779 246.161 76.5693 246.301 76.1515C246.444 75.7323 246.365 75.22 246.063 74.6148L245.026 72.532L242 74.0389Z" fill="black"/>
<path d="M251.78 84.3738L252.249 85.7055L248.705 89.9485L248.745 90.061L254.166 91.1447L254.635 92.4764L247.767 90.996L243.81 92.3905L243.4 91.2277L247.357 89.8331L251.78 84.3738Z" fill="black"/>
<path d="M257.562 125.31L257.448 124.082C257.795 123.977 258.093 123.821 258.344 123.615C258.594 123.412 258.799 123.173 258.956 122.899C259.117 122.628 259.23 122.333 259.294 122.014C259.357 121.695 259.373 121.367 259.342 121.031C259.285 120.417 259.079 119.875 258.722 119.406C258.366 118.939 257.873 118.587 257.241 118.35C256.611 118.115 255.856 118.039 254.978 118.12C254.101 118.201 253.373 118.415 252.796 118.761C252.219 119.111 251.799 119.548 251.534 120.072C251.27 120.599 251.167 121.169 251.224 121.783C251.255 122.12 251.331 122.439 251.452 122.741C251.573 123.042 251.736 123.312 251.942 123.549C252.15 123.789 252.396 123.986 252.68 124.14C252.968 124.296 253.29 124.394 253.646 124.435L253.76 125.662C253.233 125.618 252.754 125.492 252.322 125.286C251.89 125.08 251.514 124.809 251.193 124.472C250.876 124.135 250.622 123.748 250.431 123.309C250.241 122.874 250.123 122.401 250.075 121.89C249.995 121.025 250.135 120.236 250.495 119.524C250.855 118.812 251.407 118.226 252.15 117.768C252.893 117.31 253.799 117.031 254.868 116.932C255.938 116.833 256.88 116.94 257.694 117.254C258.509 117.568 259.159 118.042 259.643 118.676C260.128 119.31 260.411 120.06 260.491 120.924C260.538 121.436 260.508 121.923 260.402 122.386C260.295 122.851 260.115 123.279 259.861 123.669C259.611 124.058 259.293 124.394 258.906 124.676C258.523 124.958 258.075 125.169 257.562 125.31Z" fill="black"/>
<path d="M250.68 132.784L260.857 133.097L260.819 134.33L251.735 134.05L251.589 138.781L250.496 138.747L250.68 132.784Z" fill="black"/>
<path d="M259.304 151.743L249.243 150.182L249.432 148.963L259.494 150.525L259.304 151.743Z" fill="black"/>
<path d="M246.577 162.814L256.371 165.601L254.689 171.511L253.637 171.212L254.981 166.487L251.672 165.546L250.415 169.964L249.363 169.665L250.62 165.247L247.292 164.3L245.926 169.1L244.874 168.801L246.577 162.814Z" fill="black"/>
<path d="M248.89 186.284L239.513 182.315L239.978 181.216L249.503 179.223L249.542 179.131L242.18 176.015L242.66 174.88L252.037 178.848L251.572 179.947L242.021 181.951L241.982 182.043L249.363 185.166L248.89 186.284Z" fill="black"/>
<path d="M243.92 193.527L244.867 194.074L241.049 200.687L240.102 200.14L241.703 197.367L233.832 192.823L234.449 191.755L242.319 196.299L243.92 193.527Z" fill="black"/>
<path d="M230.651 210.799C231.089 211.055 231.547 211.097 232.024 210.927C232.502 210.756 232.927 210.424 233.298 209.932C233.57 209.573 233.75 209.214 233.837 208.856C233.922 208.501 233.92 208.172 233.83 207.867C233.738 207.565 233.563 207.316 233.304 207.121C233.087 206.957 232.861 206.868 232.627 206.853C232.394 206.843 232.164 206.881 231.937 206.967C231.713 207.055 231.5 207.164 231.298 207.294C231.098 207.426 230.922 207.552 230.768 207.673L229.923 208.33C229.708 208.5 229.453 208.678 229.16 208.863C228.864 209.051 228.542 209.2 228.193 209.31C227.844 209.425 227.48 209.462 227.101 209.42C226.721 209.378 226.341 209.214 225.96 208.926C225.521 208.594 225.211 208.18 225.03 207.682C224.847 207.187 224.817 206.641 224.94 206.044C225.061 205.45 225.357 204.841 225.828 204.216C226.267 203.634 226.742 203.201 227.251 202.917C227.759 202.636 228.272 202.501 228.792 202.511C229.309 202.524 229.802 202.682 230.271 202.986L229.504 204.002C229.177 203.797 228.845 203.708 228.508 203.736C228.172 203.769 227.85 203.887 227.543 204.091C227.236 204.299 226.96 204.565 226.717 204.887C226.433 205.263 226.239 205.646 226.135 206.037C226.034 206.43 226.027 206.796 226.115 207.137C226.205 207.479 226.398 207.762 226.695 207.986C226.964 208.189 227.241 208.28 227.524 208.257C227.807 208.234 228.094 208.139 228.386 207.973C228.678 207.807 228.971 207.611 229.266 207.386L230.307 206.602C230.968 206.105 231.608 205.799 232.227 205.684C232.845 205.57 233.428 205.719 233.975 206.132C234.43 206.476 234.734 206.899 234.887 207.4C235.04 207.906 235.053 208.439 234.925 208.999C234.798 209.564 234.539 210.105 234.147 210.623C233.752 211.147 233.306 211.542 232.811 211.807C232.318 212.075 231.821 212.206 231.318 212.2C230.814 212.197 230.352 212.047 229.932 211.751L230.651 210.799Z" fill="black"/>
<path d="M205.032 231.879C204.359 231.042 203.928 230.198 203.74 229.345C203.552 228.493 203.588 227.689 203.849 226.935C204.109 226.181 204.578 225.531 205.255 224.987C205.931 224.442 206.666 224.123 207.459 224.03C208.251 223.937 209.044 224.073 209.836 224.439C210.629 224.806 211.362 225.407 212.035 226.244C212.708 227.08 213.139 227.925 213.327 228.777C213.515 229.63 213.479 230.433 213.218 231.188C212.958 231.942 212.489 232.592 211.812 233.136C211.136 233.68 210.401 233.999 209.609 234.093C208.816 234.186 208.023 234.05 207.231 233.683C206.438 233.317 205.705 232.716 205.032 231.879ZM205.962 231.131C206.514 231.818 207.096 232.305 207.706 232.593C208.313 232.882 208.91 232.992 209.495 232.921C210.078 232.852 210.609 232.624 211.089 232.237C211.57 231.851 211.907 231.38 212.102 230.823C212.294 230.269 212.314 229.663 212.164 229.005C212.011 228.35 211.658 227.679 211.105 226.992C210.553 226.305 209.973 225.817 209.365 225.527C208.755 225.239 208.159 225.13 207.576 225.199C206.991 225.27 206.458 225.499 205.978 225.885C205.497 226.272 205.161 226.742 204.969 227.297C204.775 227.853 204.754 228.459 204.907 229.114C205.057 229.772 205.409 230.444 205.962 231.131Z" fill="black"/>
<path d="M196.127 243.609L190.767 234.952L191.782 234.324L200.707 238.2L200.792 238.148L196.583 231.351L197.632 230.702L202.992 239.358L201.977 239.986L193.024 236.104L192.94 236.156L197.159 242.97L196.127 243.609Z" fill="black"/>
<path d="M184.441 238.23L188.697 247.48L187.577 247.996L183.778 239.739L179.479 241.718L179.022 240.724L184.441 238.23Z" fill="black"/>
<path d="M176.355 252.799L175.01 253.227L170.878 249.554L170.764 249.59L169.514 254.975L168.169 255.403L169.86 248.584L168.588 244.585L169.763 244.211L171.035 248.21L176.355 252.799Z" fill="black"/>
<path d="M142.026 255.14L141.959 254.048L146.405 253.774L146.472 254.866L142.026 255.14Z" fill="black"/>
</svg>
